solid OpenSCAD_Model
  facet normal -1 0 0
    outer loop
      vertex 0 0 0
      vertex 0 18 10
      vertex 0 18 0
    endloop
  endfacet
  facet normal -1 -0 0
    outer loop
      vertex 0 18 10
      vertex 0 0 0
      vertex 0 0 10
    endloop
  endfacet
  facet normal 0 0 1
    outer loop
      vertex 2.725 18 10
      vertex 6.725 18 10
      vertex 6.725 24.2 10
    endloop
  endfacet
  facet normal 0 0 1
    outer loop
      vertex 6.725 18 10
      vertex 2.725 18 10
      vertex 4.55 13 10
    endloop
  endfacet
  facet normal 0 0 1
    outer loop
      vertex 2.725 18 10
      vertex 6.725 24.2 10
      vertex 2.725 24.2 10
    endloop
  endfacet
  facet normal 0 0 1
    outer loop
      vertex 23.1 18 10
      vertex 14.55 13 10
      vertex 23.1 0 10
    endloop
  endfacet
  facet normal -0 0 1
    outer loop
      vertex 6.725 18 10
      vertex 14.55 13 10
      vertex 23.1 18 10
    endloop
  endfacet
  facet normal 0 0 1
    outer loop
      vertex 14.55 13 10
      vertex 6.725 18 10
      vertex 4.55 13 10
    endloop
  endfacet
  facet normal -0 0 1
    outer loop
      vertex 14.55 3 10
      vertex 23.1 0 10
      vertex 14.55 13 10
    endloop
  endfacet
  facet normal 0 0 1
    outer loop
      vertex 0 0 10
      vertex 14.55 3 10
      vertex 4.55 3 10
    endloop
  endfacet
  facet normal -0 0 1
    outer loop
      vertex 0 18 10
      vertex 4.55 13 10
      vertex 2.725 18 10
    endloop
  endfacet
  facet normal 0 0 1
    outer loop
      vertex 0 0 10
      vertex 4.55 13 10
      vertex 0 18 10
    endloop
  endfacet
  facet normal 0 0 1
    outer loop
      vertex 14.55 3 10
      vertex 0 0 10
      vertex 23.1 0 10
    endloop
  endfacet
  facet normal 0 0 1
    outer loop
      vertex 4.55 13 10
      vertex 0 0 10
      vertex 4.55 3 10
    endloop
  endfacet
  facet normal 1 -0 0
    outer loop
      vertex 23.1 0 10
      vertex 23.1 18 0
      vertex 23.1 18 10
    endloop
  endfacet
  facet normal 1 0 0
    outer loop
      vertex 23.1 18 0
      vertex 23.1 0 10
      vertex 23.1 0 0
    endloop
  endfacet
  facet normal 0 1 -0
    outer loop
      vertex 2.725 18 0
      vertex 0 18 10
      vertex 2.725 18 10
    endloop
  endfacet
  facet normal 0 1 0
    outer loop
      vertex 0 18 10
      vertex 2.725 18 0
      vertex 0 18 0
    endloop
  endfacet
  facet normal 0 1 0
    outer loop
      vertex 17.8171 18 6.74041
      vertex 23.1 18 10
      vertex 18.1829 18 6.74041
    endloop
  endfacet
  facet normal 0 1 0
    outer loop
      vertex 23.1 18 10
      vertex 18.5408 18 6.66435
      vertex 18.1829 18 6.74041
    endloop
  endfacet
  facet normal 0 1 0
    outer loop
      vertex 23.1 18 10
      vertex 18.875 18 6.51554
      vertex 18.5408 18 6.66435
    endloop
  endfacet
  facet normal 0 1 0
    outer loop
      vertex 23.1 18 10
      vertex 19.171 18 6.3005
      vertex 18.875 18 6.51554
    endloop
  endfacet
  facet normal 0 1 0
    outer loop
      vertex 23.1 18 10
      vertex 19.4158 18 6.02862
      vertex 19.171 18 6.3005
    endloop
  endfacet
  facet normal 0 1 0
    outer loop
      vertex 23.1 18 10
      vertex 19.5987 18 5.71179
      vertex 19.4158 18 6.02862
    endloop
  endfacet
  facet normal 0 1 0
    outer loop
      vertex 23.1 18 10
      vertex 19.7118 18 5.36384
      vertex 19.5987 18 5.71179
    endloop
  endfacet
  facet normal 0 1 0
    outer loop
      vertex 23.1 18 10
      vertex 19.75 18 5
      vertex 19.7118 18 5.36384
    endloop
  endfacet
  facet normal 0 1 -0
    outer loop
      vertex 23.1 18 0
      vertex 19.75 18 5
      vertex 23.1 18 10
    endloop
  endfacet
  facet normal 0 1 0
    outer loop
      vertex 19.75 18 5
      vertex 23.1 18 0
      vertex 19.7118 18 4.63615
    endloop
  endfacet
  facet normal 0 1 0
    outer loop
      vertex 19.7118 18 4.63615
      vertex 23.1 18 0
      vertex 19.5987 18 4.28821
    endloop
  endfacet
  facet normal 0 1 0
    outer loop
      vertex 18.1829 18 3.25959
      vertex 23.1 18 0
      vertex 17.8171 18 3.25959
    endloop
  endfacet
  facet normal 0 1 0
    outer loop
      vertex 18.5408 18 3.33565
      vertex 23.1 18 0
      vertex 18.1829 18 3.25959
    endloop
  endfacet
  facet normal 0 1 0
    outer loop
      vertex 18.875 18 3.48446
      vertex 23.1 18 0
      vertex 18.5408 18 3.33565
    endloop
  endfacet
  facet normal 0 1 0
    outer loop
      vertex 19.171 18 3.6995
      vertex 23.1 18 0
      vertex 18.875 18 3.48446
    endloop
  endfacet
  facet normal 0 1 0
    outer loop
      vertex 19.4158 18 3.97138
      vertex 23.1 18 0
      vertex 19.171 18 3.6995
    endloop
  endfacet
  facet normal 0 1 0
    outer loop
      vertex 19.5987 18 4.28821
      vertex 23.1 18 0
      vertex 19.4158 18 3.97138
    endloop
  endfacet
  facet normal 0 1 0
    outer loop
      vertex 17.4592 18 6.66435
      vertex 23.1 18 10
      vertex 17.8171 18 6.74041
    endloop
  endfacet
  facet normal 0 1 0
    outer loop
      vertex 23.1 18 10
      vertex 17.4592 18 6.66435
      vertex 6.725 18 10
    endloop
  endfacet
  facet normal 0 1 -0
    outer loop
      vertex 17.125 18 6.51554
      vertex 6.725 18 10
      vertex 17.4592 18 6.66435
    endloop
  endfacet
  facet normal 0 1 -0
    outer loop
      vertex 16.829 18 6.3005
      vertex 6.725 18 10
      vertex 17.125 18 6.51554
    endloop
  endfacet
  facet normal 0 1 -0
    outer loop
      vertex 16.5842 18 6.02862
      vertex 6.725 18 10
      vertex 16.829 18 6.3005
    endloop
  endfacet
  facet normal 0 1 -0
    outer loop
      vertex 16.4013 18 5.71179
      vertex 6.725 18 10
      vertex 16.5842 18 6.02862
    endloop
  endfacet
  facet normal 0 1 -0
    outer loop
      vertex 16.2882 18 5.36384
      vertex 6.725 18 10
      vertex 16.4013 18 5.71179
    endloop
  endfacet
  facet normal 0 1 -0
    outer loop
      vertex 16.25 18 5
      vertex 6.725 18 10
      vertex 16.2882 18 5.36384
    endloop
  endfacet
  facet normal 0 1 0
    outer loop
      vertex 6.725 18 0
      vertex 16.25 18 5
      vertex 16.2882 18 4.63615
    endloop
  endfacet
  facet normal 0 1 0
    outer loop
      vertex 6.725 18 0
      vertex 16.2882 18 4.63615
      vertex 16.4013 18 4.28821
    endloop
  endfacet
  facet normal 0 1 0
    outer loop
      vertex 6.725 18 0
      vertex 16.4013 18 4.28821
      vertex 16.5842 18 3.97138
    endloop
  endfacet
  facet normal 0 1 0
    outer loop
      vertex 6.725 18 0
      vertex 16.5842 18 3.97138
      vertex 16.829 18 3.6995
    endloop
  endfacet
  facet normal 0 1 0
    outer loop
      vertex 6.725 18 0
      vertex 16.829 18 3.6995
      vertex 17.125 18 3.48446
    endloop
  endfacet
  facet normal 0 1 0
    outer loop
      vertex 23.1 18 0
      vertex 17.4592 18 3.33565
      vertex 17.8171 18 3.25959
    endloop
  endfacet
  facet normal 0 1 0
    outer loop
      vertex 6.725 18 0
      vertex 17.4592 18 3.33565
      vertex 23.1 18 0
    endloop
  endfacet
  facet normal 0 1 0
    outer loop
      vertex 16.25 18 5
      vertex 6.725 18 0
      vertex 6.725 18 10
    endloop
  endfacet
  facet normal 0 1 0
    outer loop
      vertex 17.4592 18 3.33565
      vertex 6.725 18 0
      vertex 17.125 18 3.48446
    endloop
  endfacet
  facet normal 0 0 -1
    outer loop
      vertex 14.55 13 0
      vertex 23.1 0 0
      vertex 14.55 3 0
    endloop
  endfacet
  facet normal 0 0 -1
    outer loop
      vertex 0 0 0
      vertex 14.55 3 0
      vertex 23.1 0 0
    endloop
  endfacet
  facet normal 0 0 -1
    outer loop
      vertex 0 0 0
      vertex 4.55 13 0
      vertex 4.55 3 0
    endloop
  endfacet
  facet normal -0 0 -1
    outer loop
      vertex 14.55 3 0
      vertex 0 0 0
      vertex 4.55 3 0
    endloop
  endfacet
  facet normal -0 0 -1
    outer loop
      vertex 4.55 13 0
      vertex 0 0 0
      vertex 0 18 0
    endloop
  endfacet
  facet normal 0 0 -1
    outer loop
      vertex 4.55 13 0
      vertex 0 18 0
      vertex 2.725 18 0
    endloop
  endfacet
  facet normal 0 0 -1
    outer loop
      vertex 23.1 0 0
      vertex 14.55 13 0
      vertex 23.1 18 0
    endloop
  endfacet
  facet normal 0 0 -1
    outer loop
      vertex 14.55 13 0
      vertex 6.725 18 0
      vertex 23.1 18 0
    endloop
  endfacet
  facet normal 0 0 -1
    outer loop
      vertex 4.55 13 0
      vertex 6.725 18 0
      vertex 14.55 13 0
    endloop
  endfacet
  facet normal 0 0 -1
    outer loop
      vertex 2.725 18 0
      vertex 6.725 18 0
      vertex 4.55 13 0
    endloop
  endfacet
  facet normal 0 0 -1
    outer loop
      vertex 6.725 18 0
      vertex 2.725 18 0
      vertex 6.725 24.2 0
    endloop
  endfacet
  facet normal -0 0 -1
    outer loop
      vertex 6.725 24.2 0
      vertex 2.725 18 0
      vertex 2.725 24.2 0
    endloop
  endfacet
  facet normal 0 -1 0
    outer loop
      vertex 0 0 10
      vertex 16.3873 0 7.7933
      vertex 23.1 0 10
    endloop
  endfacet
  facet normal 0 -1 0
    outer loop
      vertex 0 0 10
      vertex 14.7746 0 5
      vertex 16.3873 0 7.7933
    endloop
  endfacet
  facet normal 0 -1 0
    outer loop
      vertex 0 0 0
      vertex 14.7746 0 5
      vertex 0 0 10
    endloop
  endfacet
  facet normal 0 -1 0
    outer loop
      vertex 23.1 0 0
      vertex 16.3873 0 2.2067
      vertex 0 0 0
    endloop
  endfacet
  facet normal 0 -1 -0
    outer loop
      vertex 14.7746 0 5
      vertex 0 0 0
      vertex 16.3873 0 2.2067
    endloop
  endfacet
  facet normal 0 -1 0
    outer loop
      vertex 19.6127 0 7.7933
      vertex 23.1 0 10
      vertex 16.3873 0 7.7933
    endloop
  endfacet
  facet normal 0 -1 0
    outer loop
      vertex 21.2254 0 5
      vertex 23.1 0 10
      vertex 19.6127 0 7.7933
    endloop
  endfacet
  facet normal 0 -1 0
    outer loop
      vertex 21.2254 0 5
      vertex 23.1 0 0
      vertex 23.1 0 10
    endloop
  endfacet
  facet normal 0 -1 0
    outer loop
      vertex 19.6127 0 2.2067
      vertex 23.1 0 0
      vertex 21.2254 0 5
    endloop
  endfacet
  facet normal 0 -1 0
    outer loop
      vertex 16.3873 0 2.2067
      vertex 23.1 0 0
      vertex 19.6127 0 2.2067
    endloop
  endfacet
  facet normal -1 0 0
    outer loop
      vertex 2.725 18 0
      vertex 2.725 24.2 10
      vertex 2.725 24.2 0
    endloop
  endfacet
  facet normal -1 -0 0
    outer loop
      vertex 2.725 24.2 10
      vertex 2.725 18 0
      vertex 2.725 18 10
    endloop
  endfacet
  facet normal 1 -0 0
    outer loop
      vertex 6.725 18 10
      vertex 6.725 24.2 0
      vertex 6.725 24.2 10
    endloop
  endfacet
  facet normal 1 0 0
    outer loop
      vertex 6.725 24.2 0
      vertex 6.725 18 10
      vertex 6.725 18 0
    endloop
  endfacet
  facet normal 0 1 -0
    outer loop
      vertex 6.725 24.2 0
      vertex 2.725 24.2 10
      vertex 6.725 24.2 10
    endloop
  endfacet
  facet normal 0 1 0
    outer loop
      vertex 2.725 24.2 10
      vertex 6.725 24.2 0
      vertex 2.725 24.2 0
    endloop
  endfacet
  facet normal -0.994522 0 -0.10453
    outer loop
      vertex 19.75 2.4 5
      vertex 19.7118 18 5.36384
      vertex 19.75 18 5
    endloop
  endfacet
  facet normal -0.994522 -0 -0.10453
    outer loop
      vertex 19.7118 18 5.36384
      vertex 19.75 2.4 5
      vertex 19.7118 2.4 5.36384
    endloop
  endfacet
  facet normal -0.866024 0 -0.500002
    outer loop
      vertex 19.5987 2.4 5.71179
      vertex 19.4158 18 6.02862
      vertex 19.5987 18 5.71179
    endloop
  endfacet
  facet normal -0.866024 -0 -0.500002
    outer loop
      vertex 19.4158 18 6.02862
      vertex 19.5987 2.4 5.71179
      vertex 19.4158 2.4 6.02862
    endloop
  endfacet
  facet normal 0.743146 -0 0.66913
    outer loop
      vertex 16.5842 2.4 3.97138
      vertex 16.829 18 3.6995
      vertex 16.5842 18 3.97138
    endloop
  endfacet
  facet normal 0.743146 0 0.66913
    outer loop
      vertex 16.829 18 3.6995
      vertex 16.5842 2.4 3.97138
      vertex 16.829 2.4 3.6995
    endloop
  endfacet
  facet normal 0.587786 0 -0.809017
    outer loop
      vertex 16.829 2.4 6.3005
      vertex 17.125 18 6.51554
      vertex 17.125 2.4 6.51554
    endloop
  endfacet
  facet normal 0.587786 0 -0.809017
    outer loop
      vertex 17.125 18 6.51554
      vertex 16.829 2.4 6.3005
      vertex 16.829 18 6.3005
    endloop
  endfacet
  facet normal -0.587786 0 0.809017
    outer loop
      vertex 18.875 18 3.48446
      vertex 19.171 2.4 3.6995
      vertex 19.171 18 3.6995
    endloop
  endfacet
  facet normal -0.587786 0 0.809017
    outer loop
      vertex 19.171 2.4 3.6995
      vertex 18.875 18 3.48446
      vertex 18.875 2.4 3.48446
    endloop
  endfacet
  facet normal -0.587786 0 -0.809017
    outer loop
      vertex 18.875 2.4 6.51554
      vertex 19.171 18 6.3005
      vertex 19.171 2.4 6.3005
    endloop
  endfacet
  facet normal -0.587786 0 -0.809017
    outer loop
      vertex 19.171 18 6.3005
      vertex 18.875 2.4 6.51554
      vertex 18.875 18 6.51554
    endloop
  endfacet
  facet normal -0.743146 0 -0.66913
    outer loop
      vertex 19.4158 2.4 6.02862
      vertex 19.171 18 6.3005
      vertex 19.4158 18 6.02862
    endloop
  endfacet
  facet normal -0.743146 -0 -0.66913
    outer loop
      vertex 19.171 18 6.3005
      vertex 19.4158 2.4 6.02862
      vertex 19.171 2.4 6.3005
    endloop
  endfacet
  facet normal 0.207912 0 -0.978148
    outer loop
      vertex 17.4592 2.4 6.66435
      vertex 17.8171 18 6.74041
      vertex 17.8171 2.4 6.74041
    endloop
  endfacet
  facet normal 0.207912 0 -0.978148
    outer loop
      vertex 17.8171 18 6.74041
      vertex 17.4592 2.4 6.66435
      vertex 17.4592 18 6.66435
    endloop
  endfacet
  facet normal 0.994522 -0 0.10453
    outer loop
      vertex 16.25 2.4 5
      vertex 16.2882 18 4.63615
      vertex 16.25 18 5
    endloop
  endfacet
  facet normal 0.994522 0 0.10453
    outer loop
      vertex 16.2882 18 4.63615
      vertex 16.25 2.4 5
      vertex 16.2882 2.4 4.63615
    endloop
  endfacet
  facet normal 0.951058 0 -0.309014
    outer loop
      vertex 16.4013 2.4 5.71179
      vertex 16.2882 18 5.36384
      vertex 16.4013 18 5.71179
    endloop
  endfacet
  facet normal 0.951058 0 -0.309014
    outer loop
      vertex 16.2882 18 5.36384
      vertex 16.4013 2.4 5.71179
      vertex 16.2882 2.4 5.36384
    endloop
  endfacet
  facet normal 0.866024 0 -0.500002
    outer loop
      vertex 16.5842 2.4 6.02862
      vertex 16.4013 18 5.71179
      vertex 16.5842 18 6.02862
    endloop
  endfacet
  facet normal 0.866024 0 -0.500002
    outer loop
      vertex 16.4013 18 5.71179
      vertex 16.5842 2.4 6.02862
      vertex 16.4013 2.4 5.71179
    endloop
  endfacet
  facet normal -0 0 1
    outer loop
      vertex 17.8171 18 3.25959
      vertex 18.1829 2.4 3.25959
      vertex 18.1829 18 3.25959
    endloop
  endfacet
  facet normal 0 0 1
    outer loop
      vertex 18.1829 2.4 3.25959
      vertex 17.8171 18 3.25959
      vertex 17.8171 2.4 3.25959
    endloop
  endfacet
  facet normal 0.951058 -0 0.309014
    outer loop
      vertex 16.2882 2.4 4.63615
      vertex 16.4013 18 4.28821
      vertex 16.2882 18 4.63615
    endloop
  endfacet
  facet normal 0.951058 0 0.309014
    outer loop
      vertex 16.4013 18 4.28821
      vertex 16.2882 2.4 4.63615
      vertex 16.4013 2.4 4.28821
    endloop
  endfacet
  facet normal -0.743146 0 0.66913
    outer loop
      vertex 19.171 2.4 3.6995
      vertex 19.4158 18 3.97138
      vertex 19.171 18 3.6995
    endloop
  endfacet
  facet normal -0.743146 0 0.66913
    outer loop
      vertex 19.4158 18 3.97138
      vertex 19.171 2.4 3.6995
      vertex 19.4158 2.4 3.97138
    endloop
  endfacet
  facet normal -0.994522 0 0.10453
    outer loop
      vertex 19.7118 2.4 4.63615
      vertex 19.75 18 5
      vertex 19.7118 18 4.63615
    endloop
  endfacet
  facet normal -0.994522 0 0.10453
    outer loop
      vertex 19.75 18 5
      vertex 19.7118 2.4 4.63615
      vertex 19.75 2.4 5
    endloop
  endfacet
  facet normal -0.951058 0 -0.309014
    outer loop
      vertex 19.7118 2.4 5.36384
      vertex 19.5987 18 5.71179
      vertex 19.7118 18 5.36384
    endloop
  endfacet
  facet normal -0.951058 -0 -0.309014
    outer loop
      vertex 19.5987 18 5.71179
      vertex 19.7118 2.4 5.36384
      vertex 19.5987 2.4 5.71179
    endloop
  endfacet
  facet normal 0 0 -1
    outer loop
      vertex 17.8171 2.4 6.74041
      vertex 18.1829 18 6.74041
      vertex 18.1829 2.4 6.74041
    endloop
  endfacet
  facet normal -0 0 -1
    outer loop
      vertex 18.1829 18 6.74041
      vertex 17.8171 2.4 6.74041
      vertex 17.8171 18 6.74041
    endloop
  endfacet
  facet normal -0.406737 0 -0.913546
    outer loop
      vertex 18.5408 2.4 6.66435
      vertex 18.875 18 6.51554
      vertex 18.875 2.4 6.51554
    endloop
  endfacet
  facet normal -0.406737 0 -0.913546
    outer loop
      vertex 18.875 18 6.51554
      vertex 18.5408 2.4 6.66435
      vertex 18.5408 18 6.66435
    endloop
  endfacet
  facet normal -0.207911 0 -0.978148
    outer loop
      vertex 18.1829 2.4 6.74041
      vertex 18.5408 18 6.66435
      vertex 18.5408 2.4 6.66435
    endloop
  endfacet
  facet normal -0.207911 0 -0.978148
    outer loop
      vertex 18.5408 18 6.66435
      vertex 18.1829 2.4 6.74041
      vertex 18.1829 18 6.74041
    endloop
  endfacet
  facet normal 0.994522 0 -0.10453
    outer loop
      vertex 16.2882 2.4 5.36384
      vertex 16.25 18 5
      vertex 16.2882 18 5.36384
    endloop
  endfacet
  facet normal 0.994522 0 -0.10453
    outer loop
      vertex 16.25 18 5
      vertex 16.2882 2.4 5.36384
      vertex 16.25 2.4 5
    endloop
  endfacet
  facet normal 0.406737 0 -0.913546
    outer loop
      vertex 17.125 2.4 6.51554
      vertex 17.4592 18 6.66435
      vertex 17.4592 2.4 6.66435
    endloop
  endfacet
  facet normal 0.406737 0 -0.913546
    outer loop
      vertex 17.4592 18 6.66435
      vertex 17.125 2.4 6.51554
      vertex 17.125 18 6.51554
    endloop
  endfacet
  facet normal 0.743146 0 -0.66913
    outer loop
      vertex 16.829 2.4 6.3005
      vertex 16.5842 18 6.02862
      vertex 16.829 18 6.3005
    endloop
  endfacet
  facet normal 0.743146 0 -0.66913
    outer loop
      vertex 16.5842 18 6.02862
      vertex 16.829 2.4 6.3005
      vertex 16.5842 2.4 6.02862
    endloop
  endfacet
  facet normal -0.207911 0 0.978148
    outer loop
      vertex 18.1829 18 3.25959
      vertex 18.5408 2.4 3.33565
      vertex 18.5408 18 3.33565
    endloop
  endfacet
  facet normal -0.207911 0 0.978148
    outer loop
      vertex 18.5408 2.4 3.33565
      vertex 18.1829 18 3.25959
      vertex 18.1829 2.4 3.25959
    endloop
  endfacet
  facet normal -0.406737 0 0.913546
    outer loop
      vertex 18.5408 18 3.33565
      vertex 18.875 2.4 3.48446
      vertex 18.875 18 3.48446
    endloop
  endfacet
  facet normal -0.406737 0 0.913546
    outer loop
      vertex 18.875 2.4 3.48446
      vertex 18.5408 18 3.33565
      vertex 18.5408 2.4 3.33565
    endloop
  endfacet
  facet normal -0.866024 0 0.500002
    outer loop
      vertex 19.4158 2.4 3.97138
      vertex 19.5987 18 4.28821
      vertex 19.4158 18 3.97138
    endloop
  endfacet
  facet normal -0.866024 0 0.500002
    outer loop
      vertex 19.5987 18 4.28821
      vertex 19.4158 2.4 3.97138
      vertex 19.5987 2.4 4.28821
    endloop
  endfacet
  facet normal -0.951058 0 0.309014
    outer loop
      vertex 19.5987 2.4 4.28821
      vertex 19.7118 18 4.63615
      vertex 19.5987 18 4.28821
    endloop
  endfacet
  facet normal -0.951058 0 0.309014
    outer loop
      vertex 19.7118 18 4.63615
      vertex 19.5987 2.4 4.28821
      vertex 19.7118 2.4 4.63615
    endloop
  endfacet
  facet normal 0.866024 -0 0.500002
    outer loop
      vertex 16.4013 2.4 4.28821
      vertex 16.5842 18 3.97138
      vertex 16.4013 18 4.28821
    endloop
  endfacet
  facet normal 0.866024 0 0.500002
    outer loop
      vertex 16.5842 18 3.97138
      vertex 16.4013 2.4 4.28821
      vertex 16.5842 2.4 3.97138
    endloop
  endfacet
  facet normal 0.207912 0 0.978148
    outer loop
      vertex 17.4592 18 3.33565
      vertex 17.8171 2.4 3.25959
      vertex 17.8171 18 3.25959
    endloop
  endfacet
  facet normal 0.207912 0 0.978148
    outer loop
      vertex 17.8171 2.4 3.25959
      vertex 17.4592 18 3.33565
      vertex 17.4592 2.4 3.33565
    endloop
  endfacet
  facet normal 0.587786 0 0.809017
    outer loop
      vertex 16.829 18 3.6995
      vertex 17.125 2.4 3.48446
      vertex 17.125 18 3.48446
    endloop
  endfacet
  facet normal 0.587786 0 0.809017
    outer loop
      vertex 17.125 2.4 3.48446
      vertex 16.829 18 3.6995
      vertex 16.829 2.4 3.6995
    endloop
  endfacet
  facet normal 0.406737 0 0.913546
    outer loop
      vertex 17.125 18 3.48446
      vertex 17.4592 2.4 3.33565
      vertex 17.4592 18 3.33565
    endloop
  endfacet
  facet normal 0.406737 0 0.913546
    outer loop
      vertex 17.4592 2.4 3.33565
      vertex 17.125 18 3.48446
      vertex 17.125 2.4 3.48446
    endloop
  endfacet
  facet normal -0.866025 0 -0.5
    outer loop
      vertex 21.2254 0 5
      vertex 19.6127 2.4 7.7933
      vertex 21.2254 2.4 5
    endloop
  endfacet
  facet normal -0.866025 -0 -0.5
    outer loop
      vertex 19.6127 2.4 7.7933
      vertex 21.2254 0 5
      vertex 19.6127 0 7.7933
    endloop
  endfacet
  facet normal 0 0 -1
    outer loop
      vertex 16.3873 0 7.7933
      vertex 19.6127 2.4 7.7933
      vertex 19.6127 0 7.7933
    endloop
  endfacet
  facet normal -0 0 -1
    outer loop
      vertex 19.6127 2.4 7.7933
      vertex 16.3873 0 7.7933
      vertex 16.3873 2.4 7.7933
    endloop
  endfacet
  facet normal 0 -1 0
    outer loop
      vertex 16.3873 2.4 7.7933
      vertex 17.8171 2.4 6.74041
      vertex 19.6127 2.4 7.7933
    endloop
  endfacet
  facet normal 0 -1 0
    outer loop
      vertex 16.3873 2.4 7.7933
      vertex 17.4592 2.4 6.66435
      vertex 17.8171 2.4 6.74041
    endloop
  endfacet
  facet normal 0 -1 0
    outer loop
      vertex 16.3873 2.4 7.7933
      vertex 17.125 2.4 6.51554
      vertex 17.4592 2.4 6.66435
    endloop
  endfacet
  facet normal 0 -1 0
    outer loop
      vertex 16.3873 2.4 7.7933
      vertex 16.829 2.4 6.3005
      vertex 17.125 2.4 6.51554
    endloop
  endfacet
  facet normal 0 -1 0
    outer loop
      vertex 16.3873 2.4 7.7933
      vertex 16.5842 2.4 6.02862
      vertex 16.829 2.4 6.3005
    endloop
  endfacet
  facet normal 0 -1 0
    outer loop
      vertex 16.3873 2.4 7.7933
      vertex 16.4013 2.4 5.71179
      vertex 16.5842 2.4 6.02862
    endloop
  endfacet
  facet normal 0 -1 0
    outer loop
      vertex 14.7746 2.4 5
      vertex 16.4013 2.4 5.71179
      vertex 16.3873 2.4 7.7933
    endloop
  endfacet
  facet normal 0 -1 0
    outer loop
      vertex 16.4013 2.4 5.71179
      vertex 14.7746 2.4 5
      vertex 16.2882 2.4 5.36384
    endloop
  endfacet
  facet normal 0 -1 0
    outer loop
      vertex 14.7746 2.4 5
      vertex 16.25 2.4 5
      vertex 16.2882 2.4 5.36384
    endloop
  endfacet
  facet normal 0 -1 0
    outer loop
      vertex 14.7746 2.4 5
      vertex 16.2882 2.4 4.63615
      vertex 16.25 2.4 5
    endloop
  endfacet
  facet normal 0 -1 0
    outer loop
      vertex 14.7746 2.4 5
      vertex 16.4013 2.4 4.28821
      vertex 16.2882 2.4 4.63615
    endloop
  endfacet
  facet normal 0 -1 0
    outer loop
      vertex 14.7746 2.4 5
      vertex 16.5842 2.4 3.97138
      vertex 16.4013 2.4 4.28821
    endloop
  endfacet
  facet normal 0 -1 0
    outer loop
      vertex 16.3873 2.4 2.2067
      vertex 16.5842 2.4 3.97138
      vertex 14.7746 2.4 5
    endloop
  endfacet
  facet normal 0 -1 -0
    outer loop
      vertex 16.5842 2.4 3.97138
      vertex 16.3873 2.4 2.2067
      vertex 16.829 2.4 3.6995
    endloop
  endfacet
  facet normal 0 -1 -0
    outer loop
      vertex 17.8171 2.4 3.25959
      vertex 16.3873 2.4 2.2067
      vertex 18.1829 2.4 3.25959
    endloop
  endfacet
  facet normal 0 -1 -0
    outer loop
      vertex 17.4592 2.4 3.33565
      vertex 16.3873 2.4 2.2067
      vertex 17.8171 2.4 3.25959
    endloop
  endfacet
  facet normal 0 -1 -0
    outer loop
      vertex 17.125 2.4 3.48446
      vertex 16.3873 2.4 2.2067
      vertex 17.4592 2.4 3.33565
    endloop
  endfacet
  facet normal 0 -1 -0
    outer loop
      vertex 16.829 2.4 3.6995
      vertex 16.3873 2.4 2.2067
      vertex 17.125 2.4 3.48446
    endloop
  endfacet
  facet normal 0 -1 0
    outer loop
      vertex 18.1829 2.4 6.74041
      vertex 19.6127 2.4 7.7933
      vertex 17.8171 2.4 6.74041
    endloop
  endfacet
  facet normal 0 -1 0
    outer loop
      vertex 18.5408 2.4 6.66435
      vertex 19.6127 2.4 7.7933
      vertex 18.1829 2.4 6.74041
    endloop
  endfacet
  facet normal 0 -1 0
    outer loop
      vertex 18.875 2.4 6.51554
      vertex 19.6127 2.4 7.7933
      vertex 18.5408 2.4 6.66435
    endloop
  endfacet
  facet normal 0 -1 0
    outer loop
      vertex 19.171 2.4 6.3005
      vertex 19.6127 2.4 7.7933
      vertex 18.875 2.4 6.51554
    endloop
  endfacet
  facet normal 0 -1 0
    outer loop
      vertex 19.4158 2.4 6.02862
      vertex 19.6127 2.4 7.7933
      vertex 19.171 2.4 6.3005
    endloop
  endfacet
  facet normal 0 -1 0
    outer loop
      vertex 19.5987 2.4 5.71179
      vertex 19.6127 2.4 7.7933
      vertex 19.4158 2.4 6.02862
    endloop
  endfacet
  facet normal 0 -1 0
    outer loop
      vertex 21.2254 2.4 5
      vertex 19.5987 2.4 5.71179
      vertex 19.7118 2.4 5.36384
    endloop
  endfacet
  facet normal 0 -1 0
    outer loop
      vertex 21.2254 2.4 5
      vertex 19.7118 2.4 5.36384
      vertex 19.75 2.4 5
    endloop
  endfacet
  facet normal 0 -1 0
    outer loop
      vertex 19.5987 2.4 5.71179
      vertex 21.2254 2.4 5
      vertex 19.6127 2.4 7.7933
    endloop
  endfacet
  facet normal 0 -1 0
    outer loop
      vertex 19.7118 2.4 4.63615
      vertex 21.2254 2.4 5
      vertex 19.75 2.4 5
    endloop
  endfacet
  facet normal 0 -1 0
    outer loop
      vertex 19.5987 2.4 4.28821
      vertex 21.2254 2.4 5
      vertex 19.7118 2.4 4.63615
    endloop
  endfacet
  facet normal 0 -1 0
    outer loop
      vertex 19.4158 2.4 3.97138
      vertex 21.2254 2.4 5
      vertex 19.5987 2.4 4.28821
    endloop
  endfacet
  facet normal 0 -1 0
    outer loop
      vertex 19.6127 2.4 2.2067
      vertex 19.4158 2.4 3.97138
      vertex 19.171 2.4 3.6995
    endloop
  endfacet
  facet normal 0 -1 0
    outer loop
      vertex 19.6127 2.4 2.2067
      vertex 19.171 2.4 3.6995
      vertex 18.875 2.4 3.48446
    endloop
  endfacet
  facet normal 0 -1 0
    outer loop
      vertex 19.6127 2.4 2.2067
      vertex 18.1829 2.4 3.25959
      vertex 16.3873 2.4 2.2067
    endloop
  endfacet
  facet normal 0 -1 0
    outer loop
      vertex 18.1829 2.4 3.25959
      vertex 19.6127 2.4 2.2067
      vertex 18.5408 2.4 3.33565
    endloop
  endfacet
  facet normal 0 -1 0
    outer loop
      vertex 19.4158 2.4 3.97138
      vertex 19.6127 2.4 2.2067
      vertex 21.2254 2.4 5
    endloop
  endfacet
  facet normal 0 -1 0
    outer loop
      vertex 18.5408 2.4 3.33565
      vertex 19.6127 2.4 2.2067
      vertex 18.875 2.4 3.48446
    endloop
  endfacet
  facet normal -0 0 1
    outer loop
      vertex 16.3873 2.4 2.2067
      vertex 19.6127 0 2.2067
      vertex 19.6127 2.4 2.2067
    endloop
  endfacet
  facet normal 0 0 1
    outer loop
      vertex 19.6127 0 2.2067
      vertex 16.3873 2.4 2.2067
      vertex 16.3873 0 2.2067
    endloop
  endfacet
  facet normal -0.866025 0 0.5
    outer loop
      vertex 19.6127 0 2.2067
      vertex 21.2254 2.4 5
      vertex 19.6127 2.4 2.2067
    endloop
  endfacet
  facet normal -0.866025 0 0.5
    outer loop
      vertex 21.2254 2.4 5
      vertex 19.6127 0 2.2067
      vertex 21.2254 0 5
    endloop
  endfacet
  facet normal 0.866025 0 -0.5
    outer loop
      vertex 16.3873 0 7.7933
      vertex 14.7746 2.4 5
      vertex 16.3873 2.4 7.7933
    endloop
  endfacet
  facet normal 0.866025 0 -0.5
    outer loop
      vertex 14.7746 2.4 5
      vertex 16.3873 0 7.7933
      vertex 14.7746 0 5
    endloop
  endfacet
  facet normal 0.866025 -0 0.5
    outer loop
      vertex 14.7746 0 5
      vertex 16.3873 2.4 2.2067
      vertex 14.7746 2.4 5
    endloop
  endfacet
  facet normal 0.866025 0 0.5
    outer loop
      vertex 16.3873 2.4 2.2067
      vertex 14.7746 0 5
      vertex 16.3873 0 2.2067
    endloop
  endfacet
  facet normal 1 -0 0
    outer loop
      vertex 4.55 3 10
      vertex 4.55 13 0
      vertex 4.55 13 10
    endloop
  endfacet
  facet normal 1 0 0
    outer loop
      vertex 4.55 13 0
      vertex 4.55 3 10
      vertex 4.55 3 0
    endloop
  endfacet
  facet normal -1 0 0
    outer loop
      vertex 14.55 3 0
      vertex 14.55 13 10
      vertex 14.55 13 0
    endloop
  endfacet
  facet normal -1 -0 0
    outer loop
      vertex 14.55 13 10
      vertex 14.55 3 0
      vertex 14.55 3 10
    endloop
  endfacet
  facet normal 0 1 -0
    outer loop
      vertex 14.55 3 0
      vertex 4.55 3 10
      vertex 14.55 3 10
    endloop
  endfacet
  facet normal 0 1 0
    outer loop
      vertex 4.55 3 10
      vertex 14.55 3 0
      vertex 4.55 3 0
    endloop
  endfacet
  facet normal 0 -1 0
    outer loop
      vertex 4.55 13 0
      vertex 14.55 13 10
      vertex 4.55 13 10
    endloop
  endfacet
  facet normal 0 -1 -0
    outer loop
      vertex 14.55 13 10
      vertex 4.55 13 0
      vertex 14.55 13 0
    endloop
  endfacet
endsolid OpenSCAD_Model
