solid OpenSCAD_Model
  facet normal -1 0 0
    outer loop
      vertex -10 0 0
      vertex -10 31.5 14.5
      vertex -10 31.5 0
    endloop
  endfacet
  facet normal -1 -0 0
    outer loop
      vertex -10 31.5 14.5
      vertex -10 0 0
      vertex -10 0 14.5
    endloop
  endfacet
  facet normal 0 0 1
    outer loop
      vertex 8 30 5
      vertex 5 4.25 5
      vertex 8 0 5
    endloop
  endfacet
  facet normal 0 0 1
    outer loop
      vertex 8 30 5
      vertex -5 4.25 5
      vertex 5 4.25 5
    endloop
  endfacet
  facet normal 0 0 1
    outer loop
      vertex -8 0 5
      vertex -5 4.25 5
      vertex -8 30 5
    endloop
  endfacet
  facet normal -0 0 1
    outer loop
      vertex -8 30 5
      vertex -5 4.25 5
      vertex 8 30 5
    endloop
  endfacet
  facet normal -0 0 1
    outer loop
      vertex 5 0.75 5
      vertex 8 0 5
      vertex 5 4.25 5
    endloop
  endfacet
  facet normal -0 0 1
    outer loop
      vertex -5 0.75 5
      vertex 8 0 5
      vertex 5 0.75 5
    endloop
  endfacet
  facet normal 0 0 1
    outer loop
      vertex -5 0.75 5
      vertex -8 0 5
      vertex 8 0 5
    endloop
  endfacet
  facet normal 0 0 1
    outer loop
      vertex -5 4.25 5
      vertex -8 0 5
      vertex -5 0.75 5
    endloop
  endfacet
  facet normal 1 -0 0
    outer loop
      vertex 16 0 14.5
      vertex 16 31.5 0
      vertex 16 31.5 14.5
    endloop
  endfacet
  facet normal 1 0 0
    outer loop
      vertex 16 31.5 0
      vertex 16 0 14.5
      vertex 16 0 0
    endloop
  endfacet
  facet normal 0 0 -1
    outer loop
      vertex 14.4344 23.6263 0
      vertex 16 0 0
      vertex 14.4344 7.37373 0
    endloop
  endfacet
  facet normal 0 0 -1
    outer loop
      vertex 16 0 0
      vertex 14.4344 23.6263 0
      vertex 14.5 24.25 0
    endloop
  endfacet
  facet normal 0 0 -1
    outer loop
      vertex 14.2406 7.97021 0
      vertex 14.4344 23.6263 0
      vertex 14.4344 7.37373 0
    endloop
  endfacet
  facet normal 0 0 -1
    outer loop
      vertex 14.2406 7.97021 0
      vertex 14.2406 23.0298 0
      vertex 14.4344 23.6263 0
    endloop
  endfacet
  facet normal 0 0 -1
    outer loop
      vertex 13.9271 8.51336 0
      vertex 14.2406 23.0298 0
      vertex 14.2406 7.97021 0
    endloop
  endfacet
  facet normal 0 0 -1
    outer loop
      vertex 13.9271 8.51336 0
      vertex 13.9271 22.4866 0
      vertex 14.2406 23.0298 0
    endloop
  endfacet
  facet normal 0 0 -1
    outer loop
      vertex 13.5074 8.97943 0
      vertex 13.9271 22.4866 0
      vertex 13.9271 8.51336 0
    endloop
  endfacet
  facet normal 0 0 -1
    outer loop
      vertex 13.5074 8.97943 0
      vertex 13.5074 22.0206 0
      vertex 13.9271 22.4866 0
    endloop
  endfacet
  facet normal 0 0 -1
    outer loop
      vertex 13 9.34808 0
      vertex 13.5074 22.0206 0
      vertex 13.5074 8.97943 0
    endloop
  endfacet
  facet normal 0 0 -1
    outer loop
      vertex 13 9.34808 0
      vertex 13 21.6519 0
      vertex 13.5074 22.0206 0
    endloop
  endfacet
  facet normal 0 0 -1
    outer loop
      vertex 12.4271 9.60317 0
      vertex 13 21.6519 0
      vertex 13 9.34808 0
    endloop
  endfacet
  facet normal 0 0 -1
    outer loop
      vertex 12.4271 9.60317 0
      vertex 12.4271 21.3968 0
      vertex 13 21.6519 0
    endloop
  endfacet
  facet normal 0 0 -1
    outer loop
      vertex 11.8136 9.73357 0
      vertex 12.4271 21.3968 0
      vertex 12.4271 9.60317 0
    endloop
  endfacet
  facet normal 0 0 -1
    outer loop
      vertex 11.8136 9.73357 0
      vertex 11.8136 21.2664 0
      vertex 12.4271 21.3968 0
    endloop
  endfacet
  facet normal 0 0 -1
    outer loop
      vertex 11.1864 9.73357 0
      vertex 11.8136 21.2664 0
      vertex 11.8136 9.73357 0
    endloop
  endfacet
  facet normal 0 0 -1
    outer loop
      vertex 11.1864 9.73357 0
      vertex 11.1864 21.2664 0
      vertex 11.8136 21.2664 0
    endloop
  endfacet
  facet normal 0 0 -1
    outer loop
      vertex 10.5729 9.60317 0
      vertex 11.1864 21.2664 0
      vertex 11.1864 9.73357 0
    endloop
  endfacet
  facet normal 0 0 -1
    outer loop
      vertex 10.5729 9.60317 0
      vertex 10.5729 21.3968 0
      vertex 11.1864 21.2664 0
    endloop
  endfacet
  facet normal 0 0 -1
    outer loop
      vertex 10 9.34808 0
      vertex 10.5729 21.3968 0
      vertex 10.5729 9.60317 0
    endloop
  endfacet
  facet normal 0 0 -1
    outer loop
      vertex 10 9.34808 0
      vertex 10 21.6519 0
      vertex 10.5729 21.3968 0
    endloop
  endfacet
  facet normal 0 0 -1
    outer loop
      vertex 9.49261 8.97943 0
      vertex 10 21.6519 0
      vertex 10 9.34808 0
    endloop
  endfacet
  facet normal 0 0 -1
    outer loop
      vertex 9.49261 8.97943 0
      vertex 9.49261 22.0206 0
      vertex 10 21.6519 0
    endloop
  endfacet
  facet normal 0 0 -1
    outer loop
      vertex 9.07295 8.51336 0
      vertex 9.49261 22.0206 0
      vertex 9.49261 8.97943 0
    endloop
  endfacet
  facet normal 0 0 -1
    outer loop
      vertex 9.07295 8.51336 0
      vertex 9.07295 22.4866 0
      vertex 9.49261 22.0206 0
    endloop
  endfacet
  facet normal 0 0 -1
    outer loop
      vertex 8.75936 7.97021 0
      vertex 9.07295 22.4866 0
      vertex 9.07295 8.51336 0
    endloop
  endfacet
  facet normal 0 0 -1
    outer loop
      vertex 8.75936 7.97021 0
      vertex 8.75936 23.0298 0
      vertex 9.07295 22.4866 0
    endloop
  endfacet
  facet normal 0 0 -1
    outer loop
      vertex -10 0 0
      vertex 8.75936 7.97021 0
      vertex 8.56556 7.37373 0
    endloop
  endfacet
  facet normal -0 0 -1
    outer loop
      vertex 8.75936 7.97021 0
      vertex -10 0 0
      vertex 8.75936 23.0298 0
    endloop
  endfacet
  facet normal 0 0 -1
    outer loop
      vertex -10 0 0
      vertex 8.56556 7.37373 0
      vertex 8.5 6.75 0
    endloop
  endfacet
  facet normal 0 0 -1
    outer loop
      vertex -10 31.5 0
      vertex 8.75936 23.0298 0
      vertex -10 0 0
    endloop
  endfacet
  facet normal 0 0 -1
    outer loop
      vertex 14.4344 7.37373 0
      vertex 16 0 0
      vertex 14.5 6.75 0
    endloop
  endfacet
  facet normal 0 0 -1
    outer loop
      vertex 16 0 0
      vertex 14.4344 6.12626 0
      vertex 14.5 6.75 0
    endloop
  endfacet
  facet normal 0 0 -1
    outer loop
      vertex 16 0 0
      vertex 14.2406 5.52979 0
      vertex 14.4344 6.12626 0
    endloop
  endfacet
  facet normal 0 0 -1
    outer loop
      vertex 16 0 0
      vertex 13.9271 4.98664 0
      vertex 14.2406 5.52979 0
    endloop
  endfacet
  facet normal 0 0 -1
    outer loop
      vertex 16 0 0
      vertex 13.5074 4.52057 0
      vertex 13.9271 4.98664 0
    endloop
  endfacet
  facet normal 0 0 -1
    outer loop
      vertex 16 0 0
      vertex 13 4.15192 0
      vertex 13.5074 4.52057 0
    endloop
  endfacet
  facet normal 0 0 -1
    outer loop
      vertex 16 0 0
      vertex 12.4271 3.89683 0
      vertex 13 4.15192 0
    endloop
  endfacet
  facet normal 0 0 -1
    outer loop
      vertex 16 0 0
      vertex 11.8136 3.76643 0
      vertex 12.4271 3.89683 0
    endloop
  endfacet
  facet normal 0 0 -1
    outer loop
      vertex 16 0 0
      vertex 11.1864 3.76643 0
      vertex 11.8136 3.76643 0
    endloop
  endfacet
  facet normal 0 0 -1
    outer loop
      vertex 16 0 0
      vertex 10.5729 3.89683 0
      vertex 11.1864 3.76643 0
    endloop
  endfacet
  facet normal 0 0 -1
    outer loop
      vertex 16 0 0
      vertex 10 4.15192 0
      vertex 10.5729 3.89683 0
    endloop
  endfacet
  facet normal 0 0 -1
    outer loop
      vertex 8.75936 23.0298 0
      vertex -10 31.5 0
      vertex 8.56556 23.6263 0
    endloop
  endfacet
  facet normal -0 0 -1
    outer loop
      vertex 8.56556 6.12626 0
      vertex -10 0 0
      vertex 8.5 6.75 0
    endloop
  endfacet
  facet normal -0 0 -1
    outer loop
      vertex 8.75936 5.52979 0
      vertex -10 0 0
      vertex 8.56556 6.12626 0
    endloop
  endfacet
  facet normal -0 0 -1
    outer loop
      vertex 9.07295 4.98664 0
      vertex -10 0 0
      vertex 8.75936 5.52979 0
    endloop
  endfacet
  facet normal -0 0 -1
    outer loop
      vertex 9.49261 4.52057 0
      vertex -10 0 0
      vertex 9.07295 4.98664 0
    endloop
  endfacet
  facet normal -0 0 -1
    outer loop
      vertex 10 4.15192 0
      vertex -10 0 0
      vertex 9.49261 4.52057 0
    endloop
  endfacet
  facet normal 0 0 -1
    outer loop
      vertex -10 0 0
      vertex 10 4.15192 0
      vertex 16 0 0
    endloop
  endfacet
  facet normal 0 0 -1
    outer loop
      vertex 16 0 0
      vertex 14.5 24.25 0
      vertex 16 31.5 0
    endloop
  endfacet
  facet normal 0 0 -1
    outer loop
      vertex 14.4344 24.8737 0
      vertex 16 31.5 0
      vertex 14.5 24.25 0
    endloop
  endfacet
  facet normal 0 0 -1
    outer loop
      vertex 14.2406 25.4702 0
      vertex 16 31.5 0
      vertex 14.4344 24.8737 0
    endloop
  endfacet
  facet normal 0 0 -1
    outer loop
      vertex 13.9271 26.0134 0
      vertex 16 31.5 0
      vertex 14.2406 25.4702 0
    endloop
  endfacet
  facet normal 0 0 -1
    outer loop
      vertex 13.5074 26.4794 0
      vertex 16 31.5 0
      vertex 13.9271 26.0134 0
    endloop
  endfacet
  facet normal 0 0 -1
    outer loop
      vertex 13 26.8481 0
      vertex 16 31.5 0
      vertex 13.5074 26.4794 0
    endloop
  endfacet
  facet normal 0 0 -1
    outer loop
      vertex 12.4271 27.1032 0
      vertex 16 31.5 0
      vertex 13 26.8481 0
    endloop
  endfacet
  facet normal 0 0 -1
    outer loop
      vertex 11.8136 27.2336 0
      vertex 16 31.5 0
      vertex 12.4271 27.1032 0
    endloop
  endfacet
  facet normal 0 0 -1
    outer loop
      vertex 11.1864 27.2336 0
      vertex 16 31.5 0
      vertex 11.8136 27.2336 0
    endloop
  endfacet
  facet normal 0 0 -1
    outer loop
      vertex 10.5729 27.1032 0
      vertex 16 31.5 0
      vertex 11.1864 27.2336 0
    endloop
  endfacet
  facet normal 0 0 -1
    outer loop
      vertex 10 26.8481 0
      vertex 16 31.5 0
      vertex 10.5729 27.1032 0
    endloop
  endfacet
  facet normal 0 0 -1
    outer loop
      vertex -10 31.5 0
      vertex 10 26.8481 0
      vertex 9.49261 26.4794 0
    endloop
  endfacet
  facet normal 0 0 -1
    outer loop
      vertex 8.56556 23.6263 0
      vertex -10 31.5 0
      vertex 8.5 24.25 0
    endloop
  endfacet
  facet normal 0 0 -1
    outer loop
      vertex 8.5 24.25 0
      vertex -10 31.5 0
      vertex 8.56556 24.8737 0
    endloop
  endfacet
  facet normal 0 0 -1
    outer loop
      vertex 8.56556 24.8737 0
      vertex -10 31.5 0
      vertex 8.75936 25.4702 0
    endloop
  endfacet
  facet normal 0 0 -1
    outer loop
      vertex 10 26.8481 0
      vertex -10 31.5 0
      vertex 16 31.5 0
    endloop
  endfacet
  facet normal 0 0 -1
    outer loop
      vertex 9.07295 26.0134 0
      vertex -10 31.5 0
      vertex 9.49261 26.4794 0
    endloop
  endfacet
  facet normal 0 0 -1
    outer loop
      vertex 8.75936 25.4702 0
      vertex -10 31.5 0
      vertex 9.07295 26.0134 0
    endloop
  endfacet
  facet normal 0 -1 0
    outer loop
      vertex -10 0 14.5
      vertex -8 0 5
      vertex -8 0 14.5
    endloop
  endfacet
  facet normal 0 -1 -0
    outer loop
      vertex -8 0 5
      vertex -10 0 0
      vertex 8 0 5
    endloop
  endfacet
  facet normal 0 -1 0
    outer loop
      vertex -10 0 0
      vertex -8 0 5
      vertex -10 0 14.5
    endloop
  endfacet
  facet normal 0 -1 0
    outer loop
      vertex 8 0 5
      vertex 16 0 14.5
      vertex 8 0 14.5
    endloop
  endfacet
  facet normal 0 -1 0
    outer loop
      vertex 8 0 5
      vertex 16 0 0
      vertex 16 0 14.5
    endloop
  endfacet
  facet normal 0 -1 0
    outer loop
      vertex 16 0 0
      vertex 8 0 5
      vertex -10 0 0
    endloop
  endfacet
  facet normal 0 1 -0
    outer loop
      vertex 16 31.5 0
      vertex -10 31.5 14.5
      vertex 16 31.5 14.5
    endloop
  endfacet
  facet normal 0 1 0
    outer loop
      vertex -10 31.5 14.5
      vertex 16 31.5 0
      vertex -10 31.5 0
    endloop
  endfacet
  facet normal -0 0 1
    outer loop
      vertex 13.2118 7.11384 14.5
      vertex 16 0 14.5
      vertex 13.2118 23.8862 14.5
    endloop
  endfacet
  facet normal 0 0 1
    outer loop
      vertex 16 0 14.5
      vertex 13.2118 7.11384 14.5
      vertex 13.25 6.75 14.5
    endloop
  endfacet
  facet normal -0 0 1
    outer loop
      vertex 13.0987 23.5382 14.5
      vertex 13.2118 7.11384 14.5
      vertex 13.2118 23.8862 14.5
    endloop
  endfacet
  facet normal 0 0 1
    outer loop
      vertex 13.0987 23.5382 14.5
      vertex 13.0987 7.46179 14.5
      vertex 13.2118 7.11384 14.5
    endloop
  endfacet
  facet normal -0 0 1
    outer loop
      vertex 12.9158 23.2214 14.5
      vertex 13.0987 7.46179 14.5
      vertex 13.0987 23.5382 14.5
    endloop
  endfacet
  facet normal 0 0 1
    outer loop
      vertex 12.9158 23.2214 14.5
      vertex 12.9158 7.77862 14.5
      vertex 13.0987 7.46179 14.5
    endloop
  endfacet
  facet normal -0 0 1
    outer loop
      vertex 12.671 22.9495 14.5
      vertex 12.9158 7.77862 14.5
      vertex 12.9158 23.2214 14.5
    endloop
  endfacet
  facet normal 0 0 1
    outer loop
      vertex 12.671 22.9495 14.5
      vertex 12.671 8.0505 14.5
      vertex 12.9158 7.77862 14.5
    endloop
  endfacet
  facet normal -0 0 1
    outer loop
      vertex 12.375 22.7345 14.5
      vertex 12.671 8.0505 14.5
      vertex 12.671 22.9495 14.5
    endloop
  endfacet
  facet normal 0 0 1
    outer loop
      vertex 12.375 22.7345 14.5
      vertex 12.375 8.26554 14.5
      vertex 12.671 8.0505 14.5
    endloop
  endfacet
  facet normal -0 0 1
    outer loop
      vertex 12.0408 22.5857 14.5
      vertex 12.375 8.26554 14.5
      vertex 12.375 22.7345 14.5
    endloop
  endfacet
  facet normal 0 0 1
    outer loop
      vertex 12.0408 22.5857 14.5
      vertex 12.0408 8.41435 14.5
      vertex 12.375 8.26554 14.5
    endloop
  endfacet
  facet normal -0 0 1
    outer loop
      vertex 11.6829 22.5096 14.5
      vertex 12.0408 8.41435 14.5
      vertex 12.0408 22.5857 14.5
    endloop
  endfacet
  facet normal 0 0 1
    outer loop
      vertex 11.6829 22.5096 14.5
      vertex 11.6829 8.49041 14.5
      vertex 12.0408 8.41435 14.5
    endloop
  endfacet
  facet normal -0 0 1
    outer loop
      vertex 11.3171 22.5096 14.5
      vertex 11.6829 8.49041 14.5
      vertex 11.6829 22.5096 14.5
    endloop
  endfacet
  facet normal 0 0 1
    outer loop
      vertex 11.3171 22.5096 14.5
      vertex 11.3171 8.49041 14.5
      vertex 11.6829 8.49041 14.5
    endloop
  endfacet
  facet normal 0 0 1
    outer loop
      vertex 10.9592 22.5857 14.5
      vertex 11.3171 8.49041 14.5
      vertex 11.3171 22.5096 14.5
    endloop
  endfacet
  facet normal 0 0 1
    outer loop
      vertex 10.9592 22.5857 14.5
      vertex 10.9592 8.41435 14.5
      vertex 11.3171 8.49041 14.5
    endloop
  endfacet
  facet normal 0 0 1
    outer loop
      vertex 10.625 22.7345 14.5
      vertex 10.9592 8.41435 14.5
      vertex 10.9592 22.5857 14.5
    endloop
  endfacet
  facet normal 0 0 1
    outer loop
      vertex 10.625 22.7345 14.5
      vertex 10.625 8.26554 14.5
      vertex 10.9592 8.41435 14.5
    endloop
  endfacet
  facet normal 0 0 1
    outer loop
      vertex 10.329 22.9495 14.5
      vertex 10.625 8.26554 14.5
      vertex 10.625 22.7345 14.5
    endloop
  endfacet
  facet normal 0 0 1
    outer loop
      vertex 10.329 22.9495 14.5
      vertex 10.329 8.0505 14.5
      vertex 10.625 8.26554 14.5
    endloop
  endfacet
  facet normal 0 0 1
    outer loop
      vertex 10.0842 23.2214 14.5
      vertex 10.329 8.0505 14.5
      vertex 10.329 22.9495 14.5
    endloop
  endfacet
  facet normal 0 0 1
    outer loop
      vertex 10.0842 23.2214 14.5
      vertex 10.0842 7.77862 14.5
      vertex 10.329 8.0505 14.5
    endloop
  endfacet
  facet normal 0 0 1
    outer loop
      vertex 9.90129 23.5382 14.5
      vertex 10.0842 7.77862 14.5
      vertex 10.0842 23.2214 14.5
    endloop
  endfacet
  facet normal 0 0 1
    outer loop
      vertex 9.90129 23.5382 14.5
      vertex 9.90129 7.46179 14.5
      vertex 10.0842 7.77862 14.5
    endloop
  endfacet
  facet normal 0 0 1
    outer loop
      vertex 9.78824 23.8862 14.5
      vertex 9.90129 7.46179 14.5
      vertex 9.90129 23.5382 14.5
    endloop
  endfacet
  facet normal 0 0 1
    outer loop
      vertex 9.78824 23.8862 14.5
      vertex 9.78824 7.11384 14.5
      vertex 9.90129 7.46179 14.5
    endloop
  endfacet
  facet normal 0 0 1
    outer loop
      vertex 8 30 14.5
      vertex 9.78824 23.8862 14.5
      vertex 9.75 24.25 14.5
    endloop
  endfacet
  facet normal 0 0 1
    outer loop
      vertex 9.78824 23.8862 14.5
      vertex 8 30 14.5
      vertex 9.78824 7.11384 14.5
    endloop
  endfacet
  facet normal 0 0 1
    outer loop
      vertex 13.2118 23.8862 14.5
      vertex 16 31.5 14.5
      vertex 13.25 24.25 14.5
    endloop
  endfacet
  facet normal 0 0 1
    outer loop
      vertex 16 31.5 14.5
      vertex 13.2118 24.6138 14.5
      vertex 13.25 24.25 14.5
    endloop
  endfacet
  facet normal 0 0 1
    outer loop
      vertex 16 31.5 14.5
      vertex 13.0987 24.9618 14.5
      vertex 13.2118 24.6138 14.5
    endloop
  endfacet
  facet normal 0 0 1
    outer loop
      vertex 16 31.5 14.5
      vertex 12.9158 25.2786 14.5
      vertex 13.0987 24.9618 14.5
    endloop
  endfacet
  facet normal 0 0 1
    outer loop
      vertex 16 31.5 14.5
      vertex 12.671 25.5505 14.5
      vertex 12.9158 25.2786 14.5
    endloop
  endfacet
  facet normal 0 0 1
    outer loop
      vertex 16 31.5 14.5
      vertex 12.375 25.7655 14.5
      vertex 12.671 25.5505 14.5
    endloop
  endfacet
  facet normal 0 0 1
    outer loop
      vertex 16 31.5 14.5
      vertex 12.0408 25.9143 14.5
      vertex 12.375 25.7655 14.5
    endloop
  endfacet
  facet normal 0 0 1
    outer loop
      vertex 16 31.5 14.5
      vertex 11.6829 25.9904 14.5
      vertex 12.0408 25.9143 14.5
    endloop
  endfacet
  facet normal -0 0 1
    outer loop
      vertex 8 30 14.5
      vertex 11.6829 25.9904 14.5
      vertex 16 31.5 14.5
    endloop
  endfacet
  facet normal 0 0 1
    outer loop
      vertex 11.6829 25.9904 14.5
      vertex 8 30 14.5
      vertex 11.3171 25.9904 14.5
    endloop
  endfacet
  facet normal 0 0 1
    outer loop
      vertex 11.3171 25.9904 14.5
      vertex 8 30 14.5
      vertex 10.9592 25.9143 14.5
    endloop
  endfacet
  facet normal 0 0 1
    outer loop
      vertex 10.9592 25.9143 14.5
      vertex 8 30 14.5
      vertex 10.625 25.7655 14.5
    endloop
  endfacet
  facet normal 0 0 1
    outer loop
      vertex 8 0 14.5
      vertex 9.78824 7.11384 14.5
      vertex 8 30 14.5
    endloop
  endfacet
  facet normal 0 0 1
    outer loop
      vertex 9.78824 24.6138 14.5
      vertex 8 30 14.5
      vertex 9.75 24.25 14.5
    endloop
  endfacet
  facet normal 0 0 1
    outer loop
      vertex 9.90129 24.9618 14.5
      vertex 8 30 14.5
      vertex 9.78824 24.6138 14.5
    endloop
  endfacet
  facet normal 0 0 1
    outer loop
      vertex 10.0842 25.2786 14.5
      vertex 8 30 14.5
      vertex 9.90129 24.9618 14.5
    endloop
  endfacet
  facet normal 0 0 1
    outer loop
      vertex 10.329 25.5505 14.5
      vertex 8 30 14.5
      vertex 10.0842 25.2786 14.5
    endloop
  endfacet
  facet normal 0 0 1
    outer loop
      vertex 10.625 25.7655 14.5
      vertex 8 30 14.5
      vertex 10.329 25.5505 14.5
    endloop
  endfacet
  facet normal -0 0 1
    outer loop
      vertex -10 31.5 14.5
      vertex 8 30 14.5
      vertex 16 31.5 14.5
    endloop
  endfacet
  facet normal 0 0 1
    outer loop
      vertex 8 30 14.5
      vertex -10 31.5 14.5
      vertex -8 30 14.5
    endloop
  endfacet
  facet normal 0 0 1
    outer loop
      vertex -10 0 14.5
      vertex -8 30 14.5
      vertex -10 31.5 14.5
    endloop
  endfacet
  facet normal 0 0 1
    outer loop
      vertex -8 30 14.5
      vertex -10 0 14.5
      vertex -8 0 14.5
    endloop
  endfacet
  facet normal 0 0 1
    outer loop
      vertex 16 31.5 14.5
      vertex 13.2118 23.8862 14.5
      vertex 16 0 14.5
    endloop
  endfacet
  facet normal -0 0 1
    outer loop
      vertex 13.2118 6.38615 14.5
      vertex 16 0 14.5
      vertex 13.25 6.75 14.5
    endloop
  endfacet
  facet normal -0 0 1
    outer loop
      vertex 13.0987 6.03821 14.5
      vertex 16 0 14.5
      vertex 13.2118 6.38615 14.5
    endloop
  endfacet
  facet normal -0 0 1
    outer loop
      vertex 12.9158 5.72138 14.5
      vertex 16 0 14.5
      vertex 13.0987 6.03821 14.5
    endloop
  endfacet
  facet normal -0 0 1
    outer loop
      vertex 12.671 5.4495 14.5
      vertex 16 0 14.5
      vertex 12.9158 5.72138 14.5
    endloop
  endfacet
  facet normal -0 0 1
    outer loop
      vertex 12.375 5.23446 14.5
      vertex 16 0 14.5
      vertex 12.671 5.4495 14.5
    endloop
  endfacet
  facet normal -0 0 1
    outer loop
      vertex 12.0408 5.08565 14.5
      vertex 16 0 14.5
      vertex 12.375 5.23446 14.5
    endloop
  endfacet
  facet normal -0 0 1
    outer loop
      vertex 11.6829 5.00959 14.5
      vertex 16 0 14.5
      vertex 12.0408 5.08565 14.5
    endloop
  endfacet
  facet normal 0 0 1
    outer loop
      vertex 8 0 14.5
      vertex 11.6829 5.00959 14.5
      vertex 11.3171 5.00959 14.5
    endloop
  endfacet
  facet normal 0 0 1
    outer loop
      vertex 8 0 14.5
      vertex 11.3171 5.00959 14.5
      vertex 10.9592 5.08565 14.5
    endloop
  endfacet
  facet normal 0 0 1
    outer loop
      vertex 8 0 14.5
      vertex 10.9592 5.08565 14.5
      vertex 10.625 5.23446 14.5
    endloop
  endfacet
  facet normal 0 0 1
    outer loop
      vertex 8 0 14.5
      vertex 10.625 5.23446 14.5
      vertex 10.329 5.4495 14.5
    endloop
  endfacet
  facet normal 0 0 1
    outer loop
      vertex 11.6829 5.00959 14.5
      vertex 8 0 14.5
      vertex 16 0 14.5
    endloop
  endfacet
  facet normal 0 0 1
    outer loop
      vertex 10.0842 5.72138 14.5
      vertex 8 0 14.5
      vertex 10.329 5.4495 14.5
    endloop
  endfacet
  facet normal 0 0 1
    outer loop
      vertex 9.90129 6.03821 14.5
      vertex 8 0 14.5
      vertex 10.0842 5.72138 14.5
    endloop
  endfacet
  facet normal 0 0 1
    outer loop
      vertex 9.78824 6.38615 14.5
      vertex 8 0 14.5
      vertex 9.90129 6.03821 14.5
    endloop
  endfacet
  facet normal 0 0 1
    outer loop
      vertex 9.75 6.75 14.5
      vertex 8 0 14.5
      vertex 9.78824 6.38615 14.5
    endloop
  endfacet
  facet normal 0 0 1
    outer loop
      vertex 9.78824 7.11384 14.5
      vertex 8 0 14.5
      vertex 9.75 6.75 14.5
    endloop
  endfacet
  facet normal 1 -0 0
    outer loop
      vertex -8 0 14.5
      vertex -8 30 5
      vertex -8 30 14.5
    endloop
  endfacet
  facet normal 1 0 0
    outer loop
      vertex -8 30 5
      vertex -8 0 14.5
      vertex -8 0 5
    endloop
  endfacet
  facet normal 0 -1 0
    outer loop
      vertex -8 30 5
      vertex 8 30 14.5
      vertex -8 30 14.5
    endloop
  endfacet
  facet normal 0 -1 -0
    outer loop
      vertex 8 30 14.5
      vertex -8 30 5
      vertex 8 30 5
    endloop
  endfacet
  facet normal -1 0 0
    outer loop
      vertex 8 0 5
      vertex 8 30 14.5
      vertex 8 30 5
    endloop
  endfacet
  facet normal -1 -0 0
    outer loop
      vertex 8 30 14.5
      vertex 8 0 5
      vertex 8 0 14.5
    endloop
  endfacet
  facet normal -1 0 0
    outer loop
      vertex -5 0.75 5
      vertex -5 4.25 7.5
      vertex -5 4.25 5
    endloop
  endfacet
  facet normal -1 -0 0
    outer loop
      vertex -5 4.25 7.5
      vertex -5 0.75 5
      vertex -5 0.75 7.5
    endloop
  endfacet
  facet normal -0 0 1
    outer loop
      vertex -5 4.25 7.5
      vertex 5 0.75 7.5
      vertex 5 4.25 7.5
    endloop
  endfacet
  facet normal 0 0 1
    outer loop
      vertex 5 0.75 7.5
      vertex -5 4.25 7.5
      vertex -5 0.75 7.5
    endloop
  endfacet
  facet normal 1 -0 0
    outer loop
      vertex 5 0.75 7.5
      vertex 5 4.25 5
      vertex 5 4.25 7.5
    endloop
  endfacet
  facet normal 1 0 0
    outer loop
      vertex 5 4.25 5
      vertex 5 0.75 7.5
      vertex 5 0.75 5
    endloop
  endfacet
  facet normal 0 1 -0
    outer loop
      vertex 5 4.25 5
      vertex -5 4.25 7.5
      vertex 5 4.25 7.5
    endloop
  endfacet
  facet normal 0 1 0
    outer loop
      vertex -5 4.25 7.5
      vertex 5 4.25 5
      vertex -5 4.25 5
    endloop
  endfacet
  facet normal 0 -1 0
    outer loop
      vertex -5 0.75 5
      vertex 5 0.75 7.5
      vertex -5 0.75 7.5
    endloop
  endfacet
  facet normal 0 -1 -0
    outer loop
      vertex 5 0.75 7.5
      vertex -5 0.75 5
      vertex 5 0.75 5
    endloop
  endfacet
  facet normal -0.866025 -0.5 0
    outer loop
      vertex 13.0987 7.46179 2.76
      vertex 12.9158 7.77862 14.5
      vertex 12.9158 7.77862 2.76
    endloop
  endfacet
  facet normal -0.866025 -0.5 0
    outer loop
      vertex 12.9158 7.77862 14.5
      vertex 13.0987 7.46179 2.76
      vertex 13.0987 7.46179 14.5
    endloop
  endfacet
  facet normal -0.994522 -0.10453 0
    outer loop
      vertex 13.25 6.75 2.76
      vertex 13.2118 7.11384 14.5
      vertex 13.2118 7.11384 2.76
    endloop
  endfacet
  facet normal -0.994522 -0.10453 0
    outer loop
      vertex 13.2118 7.11384 14.5
      vertex 13.25 6.75 2.76
      vertex 13.25 6.75 14.5
    endloop
  endfacet
  facet normal 0.994522 -0.104528 0
    outer loop
      vertex 9.75 6.75 14.5
      vertex 9.78824 7.11384 2.76
      vertex 9.78824 7.11384 14.5
    endloop
  endfacet
  facet normal 0.994522 -0.104528 0
    outer loop
      vertex 9.78824 7.11384 2.76
      vertex 9.75 6.75 14.5
      vertex 9.75 6.75 2.76
    endloop
  endfacet
  facet normal -0.743146 -0.66913 0
    outer loop
      vertex 12.9158 7.77862 2.76
      vertex 12.671 8.0505 14.5
      vertex 12.671 8.0505 2.76
    endloop
  endfacet
  facet normal -0.743146 -0.66913 0
    outer loop
      vertex 12.671 8.0505 14.5
      vertex 12.9158 7.77862 2.76
      vertex 12.9158 7.77862 14.5
    endloop
  endfacet
  facet normal -0.207911 -0.978148 0
    outer loop
      vertex 11.6829 8.49041 2.76
      vertex 12.0408 8.41435 14.5
      vertex 11.6829 8.49041 14.5
    endloop
  endfacet
  facet normal -0.207911 -0.978148 -0
    outer loop
      vertex 12.0408 8.41435 14.5
      vertex 11.6829 8.49041 2.76
      vertex 12.0408 8.41435 2.76
    endloop
  endfacet
  facet normal 0.587784 -0.809018 0
    outer loop
      vertex 10.329 8.0505 2.76
      vertex 10.625 8.26554 14.5
      vertex 10.329 8.0505 14.5
    endloop
  endfacet
  facet normal 0.587784 -0.809018 0
    outer loop
      vertex 10.625 8.26554 14.5
      vertex 10.329 8.0505 2.76
      vertex 10.625 8.26554 2.76
    endloop
  endfacet
  facet normal 0.951057 -0.309016 0
    outer loop
      vertex 9.78824 7.11384 14.5
      vertex 9.90129 7.46179 2.76
      vertex 9.90129 7.46179 14.5
    endloop
  endfacet
  facet normal 0.951057 -0.309016 0
    outer loop
      vertex 9.90129 7.46179 2.76
      vertex 9.78824 7.11384 14.5
      vertex 9.78824 7.11384 2.76
    endloop
  endfacet
  facet normal -0.951057 -0.309016 0
    outer loop
      vertex 13.2118 7.11384 2.76
      vertex 13.0987 7.46179 14.5
      vertex 13.0987 7.46179 2.76
    endloop
  endfacet
  facet normal -0.951057 -0.309016 0
    outer loop
      vertex 13.0987 7.46179 14.5
      vertex 13.2118 7.11384 2.76
      vertex 13.2118 7.11384 14.5
    endloop
  endfacet
  facet normal -0.587786 -0.809017 0
    outer loop
      vertex 12.375 8.26554 2.76
      vertex 12.671 8.0505 14.5
      vertex 12.375 8.26554 14.5
    endloop
  endfacet
  facet normal -0.587786 -0.809017 -0
    outer loop
      vertex 12.671 8.0505 14.5
      vertex 12.375 8.26554 2.76
      vertex 12.671 8.0505 2.76
    endloop
  endfacet
  facet normal 0.207911 -0.978148 0
    outer loop
      vertex 10.9592 8.41435 2.76
      vertex 11.3171 8.49041 14.5
      vertex 10.9592 8.41435 14.5
    endloop
  endfacet
  facet normal 0.207911 -0.978148 0
    outer loop
      vertex 11.3171 8.49041 14.5
      vertex 10.9592 8.41435 2.76
      vertex 11.3171 8.49041 2.76
    endloop
  endfacet
  facet normal -0.406737 -0.913546 0
    outer loop
      vertex 12.0408 8.41435 2.76
      vertex 12.375 8.26554 14.5
      vertex 12.0408 8.41435 14.5
    endloop
  endfacet
  facet normal -0.406737 -0.913546 -0
    outer loop
      vertex 12.375 8.26554 14.5
      vertex 12.0408 8.41435 2.76
      vertex 12.375 8.26554 2.76
    endloop
  endfacet
  facet normal 0.994522 0.104528 0
    outer loop
      vertex 9.78824 6.38615 14.5
      vertex 9.75 6.75 2.76
      vertex 9.75 6.75 14.5
    endloop
  endfacet
  facet normal 0.994522 0.104528 0
    outer loop
      vertex 9.75 6.75 2.76
      vertex 9.78824 6.38615 14.5
      vertex 9.78824 6.38615 2.76
    endloop
  endfacet
  facet normal 0.743146 -0.66913 0
    outer loop
      vertex 10.0842 7.77862 14.5
      vertex 10.329 8.0505 2.76
      vertex 10.329 8.0505 14.5
    endloop
  endfacet
  facet normal 0.743146 -0.66913 0
    outer loop
      vertex 10.329 8.0505 2.76
      vertex 10.0842 7.77862 14.5
      vertex 10.0842 7.77862 2.76
    endloop
  endfacet
  facet normal 0.406737 -0.913545 0
    outer loop
      vertex 10.625 8.26554 2.76
      vertex 10.9592 8.41435 14.5
      vertex 10.625 8.26554 14.5
    endloop
  endfacet
  facet normal 0.406737 -0.913545 0
    outer loop
      vertex 10.9592 8.41435 14.5
      vertex 10.625 8.26554 2.76
      vertex 10.9592 8.41435 2.76
    endloop
  endfacet
  facet normal 0.866025 -0.5 0
    outer loop
      vertex 9.90129 7.46179 14.5
      vertex 10.0842 7.77862 2.76
      vertex 10.0842 7.77862 14.5
    endloop
  endfacet
  facet normal 0.866025 -0.5 0
    outer loop
      vertex 10.0842 7.77862 2.76
      vertex 9.90129 7.46179 14.5
      vertex 9.90129 7.46179 2.76
    endloop
  endfacet
  facet normal -0.951057 0.309016 0
    outer loop
      vertex 13.0987 6.03821 2.76
      vertex 13.2118 6.38615 14.5
      vertex 13.2118 6.38615 2.76
    endloop
  endfacet
  facet normal -0.951057 0.309016 0
    outer loop
      vertex 13.2118 6.38615 14.5
      vertex 13.0987 6.03821 2.76
      vertex 13.0987 6.03821 14.5
    endloop
  endfacet
  facet normal 0.951057 0.309016 0
    outer loop
      vertex 9.90129 6.03821 14.5
      vertex 9.78824 6.38615 2.76
      vertex 9.78824 6.38615 14.5
    endloop
  endfacet
  facet normal 0.951057 0.309016 0
    outer loop
      vertex 9.78824 6.38615 2.76
      vertex 9.90129 6.03821 14.5
      vertex 9.90129 6.03821 2.76
    endloop
  endfacet
  facet normal -0.743146 0.66913 0
    outer loop
      vertex 12.671 5.4495 2.76
      vertex 12.9158 5.72138 14.5
      vertex 12.9158 5.72138 2.76
    endloop
  endfacet
  facet normal -0.743146 0.66913 0
    outer loop
      vertex 12.9158 5.72138 14.5
      vertex 12.671 5.4495 2.76
      vertex 12.671 5.4495 14.5
    endloop
  endfacet
  facet normal -0.994522 0.10453 0
    outer loop
      vertex 13.2118 6.38615 2.76
      vertex 13.25 6.75 14.5
      vertex 13.25 6.75 2.76
    endloop
  endfacet
  facet normal -0.994522 0.10453 0
    outer loop
      vertex 13.25 6.75 14.5
      vertex 13.2118 6.38615 2.76
      vertex 13.2118 6.38615 14.5
    endloop
  endfacet
  facet normal 0 -1 0
    outer loop
      vertex 11.3171 8.49041 2.76
      vertex 11.6829 8.49041 14.5
      vertex 11.3171 8.49041 14.5
    endloop
  endfacet
  facet normal 0 -1 -0
    outer loop
      vertex 11.6829 8.49041 14.5
      vertex 11.3171 8.49041 2.76
      vertex 11.6829 8.49041 2.76
    endloop
  endfacet
  facet normal -0.406737 0.913546 0
    outer loop
      vertex 12.375 5.23446 2.76
      vertex 12.0408 5.08565 14.5
      vertex 12.375 5.23446 14.5
    endloop
  endfacet
  facet normal -0.406737 0.913546 0
    outer loop
      vertex 12.0408 5.08565 14.5
      vertex 12.375 5.23446 2.76
      vertex 12.0408 5.08565 2.76
    endloop
  endfacet
  facet normal -0.587786 0.809017 0
    outer loop
      vertex 12.671 5.4495 2.76
      vertex 12.375 5.23446 14.5
      vertex 12.671 5.4495 14.5
    endloop
  endfacet
  facet normal -0.587786 0.809017 0
    outer loop
      vertex 12.375 5.23446 14.5
      vertex 12.671 5.4495 2.76
      vertex 12.375 5.23446 2.76
    endloop
  endfacet
  facet normal 0.743146 0.66913 0
    outer loop
      vertex 10.329 5.4495 14.5
      vertex 10.0842 5.72138 2.76
      vertex 10.0842 5.72138 14.5
    endloop
  endfacet
  facet normal 0.743146 0.66913 0
    outer loop
      vertex 10.0842 5.72138 2.76
      vertex 10.329 5.4495 14.5
      vertex 10.329 5.4495 2.76
    endloop
  endfacet
  facet normal 0.866025 0.5 0
    outer loop
      vertex 10.0842 5.72138 14.5
      vertex 9.90129 6.03821 2.76
      vertex 9.90129 6.03821 14.5
    endloop
  endfacet
  facet normal 0.866025 0.5 0
    outer loop
      vertex 9.90129 6.03821 2.76
      vertex 10.0842 5.72138 14.5
      vertex 10.0842 5.72138 2.76
    endloop
  endfacet
  facet normal 0.587784 0.809018 -0
    outer loop
      vertex 10.625 5.23446 2.76
      vertex 10.329 5.4495 14.5
      vertex 10.625 5.23446 14.5
    endloop
  endfacet
  facet normal 0.587784 0.809018 0
    outer loop
      vertex 10.329 5.4495 14.5
      vertex 10.625 5.23446 2.76
      vertex 10.329 5.4495 2.76
    endloop
  endfacet
  facet normal 0 1 -0
    outer loop
      vertex 11.6829 5.00959 2.76
      vertex 11.3171 5.00959 14.5
      vertex 11.6829 5.00959 14.5
    endloop
  endfacet
  facet normal 0 1 0
    outer loop
      vertex 11.3171 5.00959 14.5
      vertex 11.6829 5.00959 2.76
      vertex 11.3171 5.00959 2.76
    endloop
  endfacet
  facet normal -0.207911 0.978148 0
    outer loop
      vertex 12.0408 5.08565 2.76
      vertex 11.6829 5.00959 14.5
      vertex 12.0408 5.08565 14.5
    endloop
  endfacet
  facet normal -0.207911 0.978148 0
    outer loop
      vertex 11.6829 5.00959 14.5
      vertex 12.0408 5.08565 2.76
      vertex 11.6829 5.00959 2.76
    endloop
  endfacet
  facet normal -0.866025 0.5 0
    outer loop
      vertex 12.9158 5.72138 2.76
      vertex 13.0987 6.03821 14.5
      vertex 13.0987 6.03821 2.76
    endloop
  endfacet
  facet normal -0.866025 0.5 0
    outer loop
      vertex 13.0987 6.03821 14.5
      vertex 12.9158 5.72138 2.76
      vertex 12.9158 5.72138 14.5
    endloop
  endfacet
  facet normal 0.207911 0.978148 -0
    outer loop
      vertex 11.3171 5.00959 2.76
      vertex 10.9592 5.08565 14.5
      vertex 11.3171 5.00959 14.5
    endloop
  endfacet
  facet normal 0.207911 0.978148 0
    outer loop
      vertex 10.9592 5.08565 14.5
      vertex 11.3171 5.00959 2.76
      vertex 10.9592 5.08565 2.76
    endloop
  endfacet
  facet normal 0.406737 0.913545 -0
    outer loop
      vertex 10.9592 5.08565 2.76
      vertex 10.625 5.23446 14.5
      vertex 10.9592 5.08565 14.5
    endloop
  endfacet
  facet normal 0.406737 0.913545 0
    outer loop
      vertex 10.625 5.23446 14.5
      vertex 10.9592 5.08565 2.76
      vertex 10.625 5.23446 2.76
    endloop
  endfacet
  facet normal -0.994522 -0.10453 0
    outer loop
      vertex 13.25 24.25 2.76
      vertex 13.2118 24.6138 14.5
      vertex 13.2118 24.6138 2.76
    endloop
  endfacet
  facet normal -0.994522 -0.10453 0
    outer loop
      vertex 13.2118 24.6138 14.5
      vertex 13.25 24.25 2.76
      vertex 13.25 24.25 14.5
    endloop
  endfacet
  facet normal 0.207913 -0.978147 0
    outer loop
      vertex 10.9592 25.9143 2.76
      vertex 11.3171 25.9904 14.5
      vertex 10.9592 25.9143 14.5
    endloop
  endfacet
  facet normal 0.207913 -0.978147 0
    outer loop
      vertex 11.3171 25.9904 14.5
      vertex 10.9592 25.9143 2.76
      vertex 11.3171 25.9904 2.76
    endloop
  endfacet
  facet normal -0.587787 -0.809016 0
    outer loop
      vertex 12.375 25.7655 2.76
      vertex 12.671 25.5505 14.5
      vertex 12.375 25.7655 14.5
    endloop
  endfacet
  facet normal -0.587787 -0.809016 -0
    outer loop
      vertex 12.671 25.5505 14.5
      vertex 12.375 25.7655 2.76
      vertex 12.671 25.5505 2.76
    endloop
  endfacet
  facet normal 0.866025 -0.5 0
    outer loop
      vertex 9.90129 24.9618 14.5
      vertex 10.0842 25.2786 2.76
      vertex 10.0842 25.2786 14.5
    endloop
  endfacet
  facet normal 0.866025 -0.5 0
    outer loop
      vertex 10.0842 25.2786 2.76
      vertex 9.90129 24.9618 14.5
      vertex 9.90129 24.9618 2.76
    endloop
  endfacet
  facet normal 0.951057 -0.309017 0
    outer loop
      vertex 9.78824 24.6138 14.5
      vertex 9.90129 24.9618 2.76
      vertex 9.90129 24.9618 14.5
    endloop
  endfacet
  facet normal 0.951057 -0.309017 0
    outer loop
      vertex 9.90129 24.9618 2.76
      vertex 9.78824 24.6138 14.5
      vertex 9.78824 24.6138 2.76
    endloop
  endfacet
  facet normal 0.587786 -0.809016 0
    outer loop
      vertex 10.329 25.5505 2.76
      vertex 10.625 25.7655 14.5
      vertex 10.329 25.5505 14.5
    endloop
  endfacet
  facet normal 0.587786 -0.809016 0
    outer loop
      vertex 10.625 25.7655 14.5
      vertex 10.329 25.5505 2.76
      vertex 10.625 25.7655 2.76
    endloop
  endfacet
  facet normal -0.866026 0.499998 0
    outer loop
      vertex 12.9158 23.2214 2.76
      vertex 13.0987 23.5382 14.5
      vertex 13.0987 23.5382 2.76
    endloop
  endfacet
  facet normal -0.866026 0.499998 0
    outer loop
      vertex 13.0987 23.5382 14.5
      vertex 12.9158 23.2214 2.76
      vertex 12.9158 23.2214 14.5
    endloop
  endfacet
  facet normal -0.866025 -0.5 0
    outer loop
      vertex 13.0987 24.9618 2.76
      vertex 12.9158 25.2786 14.5
      vertex 12.9158 25.2786 2.76
    endloop
  endfacet
  facet normal -0.866025 -0.5 0
    outer loop
      vertex 12.9158 25.2786 14.5
      vertex 13.0987 24.9618 2.76
      vertex 13.0987 24.9618 14.5
    endloop
  endfacet
  facet normal -0.951057 -0.309017 0
    outer loop
      vertex 13.2118 24.6138 2.76
      vertex 13.0987 24.9618 14.5
      vertex 13.0987 24.9618 2.76
    endloop
  endfacet
  facet normal -0.951057 -0.309017 0
    outer loop
      vertex 13.0987 24.9618 14.5
      vertex 13.2118 24.6138 2.76
      vertex 13.2118 24.6138 14.5
    endloop
  endfacet
  facet normal -0.743146 -0.66913 0
    outer loop
      vertex 12.9158 25.2786 2.76
      vertex 12.671 25.5505 14.5
      vertex 12.671 25.5505 2.76
    endloop
  endfacet
  facet normal -0.743146 -0.66913 0
    outer loop
      vertex 12.671 25.5505 14.5
      vertex 12.9158 25.2786 2.76
      vertex 12.9158 25.2786 14.5
    endloop
  endfacet
  facet normal -0.207913 -0.978147 0
    outer loop
      vertex 11.6829 25.9904 2.76
      vertex 12.0408 25.9143 14.5
      vertex 11.6829 25.9904 14.5
    endloop
  endfacet
  facet normal -0.207913 -0.978147 -0
    outer loop
      vertex 12.0408 25.9143 14.5
      vertex 11.6829 25.9904 2.76
      vertex 12.0408 25.9143 2.76
    endloop
  endfacet
  facet normal 0 -1 0
    outer loop
      vertex 11.3171 25.9904 2.76
      vertex 11.6829 25.9904 14.5
      vertex 11.3171 25.9904 14.5
    endloop
  endfacet
  facet normal 0 -1 -0
    outer loop
      vertex 11.6829 25.9904 14.5
      vertex 11.3171 25.9904 2.76
      vertex 11.6829 25.9904 2.76
    endloop
  endfacet
  facet normal -0.406734 -0.913546 0
    outer loop
      vertex 12.0408 25.9143 2.76
      vertex 12.375 25.7655 14.5
      vertex 12.0408 25.9143 14.5
    endloop
  endfacet
  facet normal -0.406734 -0.913546 -0
    outer loop
      vertex 12.375 25.7655 14.5
      vertex 12.0408 25.9143 2.76
      vertex 12.375 25.7655 2.76
    endloop
  endfacet
  facet normal 0.994522 -0.104528 0
    outer loop
      vertex 9.75 24.25 14.5
      vertex 9.78824 24.6138 2.76
      vertex 9.78824 24.6138 14.5
    endloop
  endfacet
  facet normal 0.994522 -0.104528 0
    outer loop
      vertex 9.78824 24.6138 2.76
      vertex 9.75 24.25 14.5
      vertex 9.75 24.25 2.76
    endloop
  endfacet
  facet normal 0.743146 -0.66913 0
    outer loop
      vertex 10.0842 25.2786 14.5
      vertex 10.329 25.5505 2.76
      vertex 10.329 25.5505 14.5
    endloop
  endfacet
  facet normal 0.743146 -0.66913 0
    outer loop
      vertex 10.329 25.5505 2.76
      vertex 10.0842 25.2786 14.5
      vertex 10.0842 25.2786 2.76
    endloop
  endfacet
  facet normal 0.406735 -0.913546 0
    outer loop
      vertex 10.625 25.7655 2.76
      vertex 10.9592 25.9143 14.5
      vertex 10.625 25.7655 14.5
    endloop
  endfacet
  facet normal 0.406735 -0.913546 0
    outer loop
      vertex 10.9592 25.9143 14.5
      vertex 10.625 25.7655 2.76
      vertex 10.9592 25.9143 2.76
    endloop
  endfacet
  facet normal -0.994522 0.10453 0
    outer loop
      vertex 13.2118 23.8862 2.76
      vertex 13.25 24.25 14.5
      vertex 13.25 24.25 2.76
    endloop
  endfacet
  facet normal -0.994522 0.10453 0
    outer loop
      vertex 13.25 24.25 14.5
      vertex 13.2118 23.8862 2.76
      vertex 13.2118 23.8862 14.5
    endloop
  endfacet
  facet normal 0 1 -0
    outer loop
      vertex 11.6829 22.5096 2.76
      vertex 11.3171 22.5096 14.5
      vertex 11.6829 22.5096 14.5
    endloop
  endfacet
  facet normal 0 1 0
    outer loop
      vertex 11.3171 22.5096 14.5
      vertex 11.6829 22.5096 2.76
      vertex 11.3171 22.5096 2.76
    endloop
  endfacet
  facet normal 0.951057 0.309017 0
    outer loop
      vertex 9.90129 23.5382 14.5
      vertex 9.78824 23.8862 2.76
      vertex 9.78824 23.8862 14.5
    endloop
  endfacet
  facet normal 0.951057 0.309017 0
    outer loop
      vertex 9.78824 23.8862 2.76
      vertex 9.90129 23.5382 14.5
      vertex 9.90129 23.5382 2.76
    endloop
  endfacet
  facet normal -0.406734 0.913546 0
    outer loop
      vertex 12.375 22.7345 2.76
      vertex 12.0408 22.5857 14.5
      vertex 12.375 22.7345 14.5
    endloop
  endfacet
  facet normal -0.406734 0.913546 0
    outer loop
      vertex 12.0408 22.5857 14.5
      vertex 12.375 22.7345 2.76
      vertex 12.0408 22.5857 2.76
    endloop
  endfacet
  facet normal -0.951057 0.309017 0
    outer loop
      vertex 13.0987 23.5382 2.76
      vertex 13.2118 23.8862 14.5
      vertex 13.2118 23.8862 2.76
    endloop
  endfacet
  facet normal -0.951057 0.309017 0
    outer loop
      vertex 13.2118 23.8862 14.5
      vertex 13.0987 23.5382 2.76
      vertex 13.0987 23.5382 14.5
    endloop
  endfacet
  facet normal 0.994522 0.104528 0
    outer loop
      vertex 9.78824 23.8862 14.5
      vertex 9.75 24.25 2.76
      vertex 9.75 24.25 14.5
    endloop
  endfacet
  facet normal 0.994522 0.104528 0
    outer loop
      vertex 9.75 24.25 2.76
      vertex 9.78824 23.8862 14.5
      vertex 9.78824 23.8862 2.76
    endloop
  endfacet
  facet normal 0.743143 0.669132 0
    outer loop
      vertex 10.329 22.9495 14.5
      vertex 10.0842 23.2214 2.76
      vertex 10.0842 23.2214 14.5
    endloop
  endfacet
  facet normal 0.743143 0.669132 0
    outer loop
      vertex 10.0842 23.2214 2.76
      vertex 10.329 22.9495 14.5
      vertex 10.329 22.9495 2.76
    endloop
  endfacet
  facet normal 0.866026 0.499998 0
    outer loop
      vertex 10.0842 23.2214 14.5
      vertex 9.90129 23.5382 2.76
      vertex 9.90129 23.5382 14.5
    endloop
  endfacet
  facet normal 0.866026 0.499998 0
    outer loop
      vertex 9.90129 23.5382 2.76
      vertex 10.0842 23.2214 14.5
      vertex 10.0842 23.2214 2.76
    endloop
  endfacet
  facet normal -0.743143 0.669132 0
    outer loop
      vertex 12.671 22.9495 2.76
      vertex 12.9158 23.2214 14.5
      vertex 12.9158 23.2214 2.76
    endloop
  endfacet
  facet normal -0.743143 0.669132 0
    outer loop
      vertex 12.9158 23.2214 14.5
      vertex 12.671 22.9495 2.76
      vertex 12.671 22.9495 14.5
    endloop
  endfacet
  facet normal -0.587787 0.809016 0
    outer loop
      vertex 12.671 22.9495 2.76
      vertex 12.375 22.7345 14.5
      vertex 12.671 22.9495 14.5
    endloop
  endfacet
  facet normal -0.587787 0.809016 0
    outer loop
      vertex 12.375 22.7345 14.5
      vertex 12.671 22.9495 2.76
      vertex 12.375 22.7345 2.76
    endloop
  endfacet
  facet normal -0.207913 0.978147 0
    outer loop
      vertex 12.0408 22.5857 2.76
      vertex 11.6829 22.5096 14.5
      vertex 12.0408 22.5857 14.5
    endloop
  endfacet
  facet normal -0.207913 0.978147 0
    outer loop
      vertex 11.6829 22.5096 14.5
      vertex 12.0408 22.5857 2.76
      vertex 11.6829 22.5096 2.76
    endloop
  endfacet
  facet normal 0.207913 0.978147 -0
    outer loop
      vertex 11.3171 22.5096 2.76
      vertex 10.9592 22.5857 14.5
      vertex 11.3171 22.5096 14.5
    endloop
  endfacet
  facet normal 0.207913 0.978147 0
    outer loop
      vertex 10.9592 22.5857 14.5
      vertex 11.3171 22.5096 2.76
      vertex 10.9592 22.5857 2.76
    endloop
  endfacet
  facet normal 0.587786 0.809016 -0
    outer loop
      vertex 10.625 22.7345 2.76
      vertex 10.329 22.9495 14.5
      vertex 10.625 22.7345 14.5
    endloop
  endfacet
  facet normal 0.587786 0.809016 0
    outer loop
      vertex 10.329 22.9495 14.5
      vertex 10.625 22.7345 2.76
      vertex 10.329 22.9495 2.76
    endloop
  endfacet
  facet normal 0.406735 0.913546 -0
    outer loop
      vertex 10.9592 22.5857 2.76
      vertex 10.625 22.7345 14.5
      vertex 10.9592 22.5857 14.5
    endloop
  endfacet
  facet normal 0.406735 0.913546 0
    outer loop
      vertex 10.625 22.7345 14.5
      vertex 10.9592 22.5857 2.76
      vertex 10.625 22.7345 2.76
    endloop
  endfacet
  facet normal -0.866026 -0.5 0
    outer loop
      vertex 14.2406 7.97021 0
      vertex 13.9271 8.51336 2.76
      vertex 13.9271 8.51336 0
    endloop
  endfacet
  facet normal -0.866026 -0.5 0
    outer loop
      vertex 13.9271 8.51336 2.76
      vertex 14.2406 7.97021 0
      vertex 14.2406 7.97021 2.76
    endloop
  endfacet
  facet normal -0.743144 -0.669131 0
    outer loop
      vertex 13.9271 8.51336 0
      vertex 13.5074 8.97943 2.76
      vertex 13.5074 8.97943 0
    endloop
  endfacet
  facet normal -0.743144 -0.669131 0
    outer loop
      vertex 13.5074 8.97943 2.76
      vertex 13.9271 8.51336 0
      vertex 13.9271 8.51336 2.76
    endloop
  endfacet
  facet normal -0.207911 -0.978148 0
    outer loop
      vertex 11.8136 9.73357 0
      vertex 12.4271 9.60317 2.76
      vertex 11.8136 9.73357 2.76
    endloop
  endfacet
  facet normal -0.207911 -0.978148 -0
    outer loop
      vertex 12.4271 9.60317 2.76
      vertex 11.8136 9.73357 0
      vertex 12.4271 9.60317 0
    endloop
  endfacet
  facet normal 0.587785 -0.809017 0
    outer loop
      vertex 9.49261 8.97943 0
      vertex 10 9.34808 2.76
      vertex 9.49261 8.97943 2.76
    endloop
  endfacet
  facet normal 0.587785 -0.809017 0
    outer loop
      vertex 10 9.34808 2.76
      vertex 9.49261 8.97943 0
      vertex 10 9.34808 0
    endloop
  endfacet
  facet normal 0.951056 -0.309017 0
    outer loop
      vertex 8.56556 7.37373 2.76
      vertex 8.75936 7.97021 0
      vertex 8.75936 7.97021 2.76
    endloop
  endfacet
  facet normal 0.951056 -0.309017 0
    outer loop
      vertex 8.75936 7.97021 0
      vertex 8.56556 7.37373 2.76
      vertex 8.56556 7.37373 0
    endloop
  endfacet
  facet normal 0.743144 -0.669131 0
    outer loop
      vertex 9.07295 8.51336 2.76
      vertex 9.49261 8.97943 0
      vertex 9.49261 8.97943 2.76
    endloop
  endfacet
  facet normal 0.743144 -0.669131 0
    outer loop
      vertex 9.49261 8.97943 0
      vertex 9.07295 8.51336 2.76
      vertex 9.07295 8.51336 0
    endloop
  endfacet
  facet normal -0.994522 0.104529 0
    outer loop
      vertex 14.4344 6.12626 0
      vertex 14.5 6.75 2.76
      vertex 14.5 6.75 0
    endloop
  endfacet
  facet normal -0.994522 0.104529 0
    outer loop
      vertex 14.5 6.75 2.76
      vertex 14.4344 6.12626 0
      vertex 14.4344 6.12626 2.76
    endloop
  endfacet
  facet normal -0.587786 -0.809016 0
    outer loop
      vertex 13 9.34808 0
      vertex 13.5074 8.97943 2.76
      vertex 13 9.34808 2.76
    endloop
  endfacet
  facet normal -0.587786 -0.809016 -0
    outer loop
      vertex 13.5074 8.97943 2.76
      vertex 13 9.34808 0
      vertex 13.5074 8.97943 0
    endloop
  endfacet
  facet normal 0.207911 -0.978148 0
    outer loop
      vertex 10.5729 9.60317 0
      vertex 11.1864 9.73357 2.76
      vertex 10.5729 9.60317 2.76
    endloop
  endfacet
  facet normal 0.207911 -0.978148 0
    outer loop
      vertex 11.1864 9.73357 2.76
      vertex 10.5729 9.60317 0
      vertex 11.1864 9.73357 0
    endloop
  endfacet
  facet normal -0.406737 -0.913545 0
    outer loop
      vertex 12.4271 9.60317 0
      vertex 13 9.34808 2.76
      vertex 12.4271 9.60317 2.76
    endloop
  endfacet
  facet normal -0.406737 -0.913545 -0
    outer loop
      vertex 13 9.34808 2.76
      vertex 12.4271 9.60317 0
      vertex 13 9.34808 0
    endloop
  endfacet
  facet normal 0.994522 0.104527 0
    outer loop
      vertex 8.56556 6.12626 2.76
      vertex 8.5 6.75 0
      vertex 8.5 6.75 2.76
    endloop
  endfacet
  facet normal 0.994522 0.104527 0
    outer loop
      vertex 8.5 6.75 0
      vertex 8.56556 6.12626 2.76
      vertex 8.56556 6.12626 0
    endloop
  endfacet
  facet normal 0.866026 -0.5 0
    outer loop
      vertex 8.75936 7.97021 2.76
      vertex 9.07295 8.51336 0
      vertex 9.07295 8.51336 2.76
    endloop
  endfacet
  facet normal 0.866026 -0.5 0
    outer loop
      vertex 9.07295 8.51336 0
      vertex 8.75936 7.97021 2.76
      vertex 8.75936 7.97021 0
    endloop
  endfacet
  facet normal 0.406737 -0.913545 0
    outer loop
      vertex 10 9.34808 0
      vertex 10.5729 9.60317 2.76
      vertex 10 9.34808 2.76
    endloop
  endfacet
  facet normal 0.406737 -0.913545 0
    outer loop
      vertex 10.5729 9.60317 2.76
      vertex 10 9.34808 0
      vertex 10.5729 9.60317 0
    endloop
  endfacet
  facet normal -0.994522 -0.104529 0
    outer loop
      vertex 14.5 6.75 0
      vertex 14.4344 7.37373 2.76
      vertex 14.4344 7.37373 0
    endloop
  endfacet
  facet normal -0.994522 -0.104529 0
    outer loop
      vertex 14.4344 7.37373 2.76
      vertex 14.5 6.75 0
      vertex 14.5 6.75 2.76
    endloop
  endfacet
  facet normal -0.951056 0.309017 0
    outer loop
      vertex 14.2406 5.52979 0
      vertex 14.4344 6.12626 2.76
      vertex 14.4344 6.12626 0
    endloop
  endfacet
  facet normal -0.951056 0.309017 0
    outer loop
      vertex 14.4344 6.12626 2.76
      vertex 14.2406 5.52979 0
      vertex 14.2406 5.52979 2.76
    endloop
  endfacet
  facet normal 0.406737 0.913545 -0
    outer loop
      vertex 10.5729 3.89683 0
      vertex 10 4.15192 2.76
      vertex 10.5729 3.89683 2.76
    endloop
  endfacet
  facet normal 0.406737 0.913545 0
    outer loop
      vertex 10 4.15192 2.76
      vertex 10.5729 3.89683 0
      vertex 10 4.15192 0
    endloop
  endfacet
  facet normal 0.743144 0.669131 0
    outer loop
      vertex 9.49261 4.52057 2.76
      vertex 9.07295 4.98664 0
      vertex 9.07295 4.98664 2.76
    endloop
  endfacet
  facet normal 0.743144 0.669131 0
    outer loop
      vertex 9.07295 4.98664 0
      vertex 9.49261 4.52057 2.76
      vertex 9.49261 4.52057 0
    endloop
  endfacet
  facet normal -0.406737 0.913545 0
    outer loop
      vertex 13 4.15192 0
      vertex 12.4271 3.89683 2.76
      vertex 13 4.15192 2.76
    endloop
  endfacet
  facet normal -0.406737 0.913545 0
    outer loop
      vertex 12.4271 3.89683 2.76
      vertex 13 4.15192 0
      vertex 12.4271 3.89683 0
    endloop
  endfacet
  facet normal -0.587786 0.809016 0
    outer loop
      vertex 13.5074 4.52057 0
      vertex 13 4.15192 2.76
      vertex 13.5074 4.52057 2.76
    endloop
  endfacet
  facet normal -0.587786 0.809016 0
    outer loop
      vertex 13 4.15192 2.76
      vertex 13.5074 4.52057 0
      vertex 13 4.15192 0
    endloop
  endfacet
  facet normal -0.951056 -0.309017 0
    outer loop
      vertex 14.4344 7.37373 0
      vertex 14.2406 7.97021 2.76
      vertex 14.2406 7.97021 0
    endloop
  endfacet
  facet normal -0.951056 -0.309017 0
    outer loop
      vertex 14.2406 7.97021 2.76
      vertex 14.4344 7.37373 0
      vertex 14.4344 7.37373 2.76
    endloop
  endfacet
  facet normal 0 -1 0
    outer loop
      vertex 11.1864 9.73357 0
      vertex 11.8136 9.73357 2.76
      vertex 11.1864 9.73357 2.76
    endloop
  endfacet
  facet normal 0 -1 -0
    outer loop
      vertex 11.8136 9.73357 2.76
      vertex 11.1864 9.73357 0
      vertex 11.8136 9.73357 0
    endloop
  endfacet
  facet normal 0 0 -1
    outer loop
      vertex 13.25 6.75 2.76
      vertex 14.5 6.75 2.76
      vertex 14.4344 6.12626 2.76
    endloop
  endfacet
  facet normal 0 0 -1
    outer loop
      vertex 13.2118 6.38615 2.76
      vertex 14.4344 6.12626 2.76
      vertex 14.2406 5.52979 2.76
    endloop
  endfacet
  facet normal 0 0 -1
    outer loop
      vertex 14.5 6.75 2.76
      vertex 13.25 6.75 2.76
      vertex 14.4344 7.37373 2.76
    endloop
  endfacet
  facet normal 0 0 -1
    outer loop
      vertex 13.0987 6.03821 2.76
      vertex 14.2406 5.52979 2.76
      vertex 13.9271 4.98664 2.76
    endloop
  endfacet
  facet normal 0 0 -1
    outer loop
      vertex 13.2118 7.11384 2.76
      vertex 14.4344 7.37373 2.76
      vertex 13.25 6.75 2.76
    endloop
  endfacet
  facet normal 0 0 -1
    outer loop
      vertex 12.9158 5.72138 2.76
      vertex 13.9271 4.98664 2.76
      vertex 13.5074 4.52057 2.76
    endloop
  endfacet
  facet normal -0 0 -1
    outer loop
      vertex 14.4344 7.37373 2.76
      vertex 13.2118 7.11384 2.76
      vertex 14.2406 7.97021 2.76
    endloop
  endfacet
  facet normal 0 0 -1
    outer loop
      vertex 13.0987 7.46179 2.76
      vertex 14.2406 7.97021 2.76
      vertex 13.2118 7.11384 2.76
    endloop
  endfacet
  facet normal 0 0 -1
    outer loop
      vertex 14.4344 6.12626 2.76
      vertex 13.2118 6.38615 2.76
      vertex 13.25 6.75 2.76
    endloop
  endfacet
  facet normal 0 0 -1
    outer loop
      vertex 14.2406 5.52979 2.76
      vertex 13.0987 6.03821 2.76
      vertex 13.2118 6.38615 2.76
    endloop
  endfacet
  facet normal 0 0 -1
    outer loop
      vertex 12.671 5.4495 2.76
      vertex 13.5074 4.52057 2.76
      vertex 13 4.15192 2.76
    endloop
  endfacet
  facet normal 0 0 -1
    outer loop
      vertex 13.9271 4.98664 2.76
      vertex 12.9158 5.72138 2.76
      vertex 13.0987 6.03821 2.76
    endloop
  endfacet
  facet normal 0 0 -1
    outer loop
      vertex 13.5074 4.52057 2.76
      vertex 12.671 5.4495 2.76
      vertex 12.9158 5.72138 2.76
    endloop
  endfacet
  facet normal 0 0 -1
    outer loop
      vertex 12.375 5.23446 2.76
      vertex 13 4.15192 2.76
      vertex 12.4271 3.89683 2.76
    endloop
  endfacet
  facet normal 0 0 -1
    outer loop
      vertex 13 4.15192 2.76
      vertex 12.375 5.23446 2.76
      vertex 12.671 5.4495 2.76
    endloop
  endfacet
  facet normal 0 0 -1
    outer loop
      vertex 12.4271 3.89683 2.76
      vertex 12.0408 5.08565 2.76
      vertex 12.375 5.23446 2.76
    endloop
  endfacet
  facet normal 0 0 -1
    outer loop
      vertex 11.8136 3.76643 2.76
      vertex 12.0408 5.08565 2.76
      vertex 12.4271 3.89683 2.76
    endloop
  endfacet
  facet normal 0 0 -1
    outer loop
      vertex 11.8136 3.76643 2.76
      vertex 11.6829 5.00959 2.76
      vertex 12.0408 5.08565 2.76
    endloop
  endfacet
  facet normal 0 0 -1
    outer loop
      vertex 11.8136 3.76643 2.76
      vertex 11.3171 5.00959 2.76
      vertex 11.6829 5.00959 2.76
    endloop
  endfacet
  facet normal 0 0 -1
    outer loop
      vertex 11.1864 3.76643 2.76
      vertex 11.3171 5.00959 2.76
      vertex 11.8136 3.76643 2.76
    endloop
  endfacet
  facet normal 0 0 -1
    outer loop
      vertex 11.1864 3.76643 2.76
      vertex 10.9592 5.08565 2.76
      vertex 11.3171 5.00959 2.76
    endloop
  endfacet
  facet normal 0 0 -1
    outer loop
      vertex 10.5729 3.89683 2.76
      vertex 10.9592 5.08565 2.76
      vertex 11.1864 3.76643 2.76
    endloop
  endfacet
  facet normal -0 0 -1
    outer loop
      vertex 10.9592 5.08565 2.76
      vertex 10.5729 3.89683 2.76
      vertex 10.625 5.23446 2.76
    endloop
  endfacet
  facet normal 0 0 -1
    outer loop
      vertex 10 4.15192 2.76
      vertex 10.625 5.23446 2.76
      vertex 10.5729 3.89683 2.76
    endloop
  endfacet
  facet normal -0 0 -1
    outer loop
      vertex 10.625 5.23446 2.76
      vertex 10 4.15192 2.76
      vertex 10.329 5.4495 2.76
    endloop
  endfacet
  facet normal 0 0 -1
    outer loop
      vertex 9.49261 4.52057 2.76
      vertex 10.329 5.4495 2.76
      vertex 10 4.15192 2.76
    endloop
  endfacet
  facet normal -0 0 -1
    outer loop
      vertex 10.329 5.4495 2.76
      vertex 9.49261 4.52057 2.76
      vertex 10.0842 5.72138 2.76
    endloop
  endfacet
  facet normal 0 0 -1
    outer loop
      vertex 9.07295 4.98664 2.76
      vertex 10.0842 5.72138 2.76
      vertex 9.49261 4.52057 2.76
    endloop
  endfacet
  facet normal -0 0 -1
    outer loop
      vertex 10.0842 5.72138 2.76
      vertex 9.07295 4.98664 2.76
      vertex 9.90129 6.03821 2.76
    endloop
  endfacet
  facet normal 0 0 -1
    outer loop
      vertex 8.75936 5.52979 2.76
      vertex 9.90129 6.03821 2.76
      vertex 9.07295 4.98664 2.76
    endloop
  endfacet
  facet normal -0 0 -1
    outer loop
      vertex 14.2406 7.97021 2.76
      vertex 13.0987 7.46179 2.76
      vertex 13.9271 8.51336 2.76
    endloop
  endfacet
  facet normal 0 0 -1
    outer loop
      vertex 12.9158 7.77862 2.76
      vertex 13.9271 8.51336 2.76
      vertex 13.0987 7.46179 2.76
    endloop
  endfacet
  facet normal -0 0 -1
    outer loop
      vertex 13.9271 8.51336 2.76
      vertex 12.9158 7.77862 2.76
      vertex 13.5074 8.97943 2.76
    endloop
  endfacet
  facet normal 0 0 -1
    outer loop
      vertex 12.671 8.0505 2.76
      vertex 13.5074 8.97943 2.76
      vertex 12.9158 7.77862 2.76
    endloop
  endfacet
  facet normal -0 0 -1
    outer loop
      vertex 13.5074 8.97943 2.76
      vertex 12.671 8.0505 2.76
      vertex 13 9.34808 2.76
    endloop
  endfacet
  facet normal 0 0 -1
    outer loop
      vertex 12.375 8.26554 2.76
      vertex 13 9.34808 2.76
      vertex 12.671 8.0505 2.76
    endloop
  endfacet
  facet normal -0 0 -1
    outer loop
      vertex 13 9.34808 2.76
      vertex 12.375 8.26554 2.76
      vertex 12.4271 9.60317 2.76
    endloop
  endfacet
  facet normal 0 0 -1
    outer loop
      vertex 12.0408 8.41435 2.76
      vertex 12.4271 9.60317 2.76
      vertex 12.375 8.26554 2.76
    endloop
  endfacet
  facet normal 0 0 -1
    outer loop
      vertex 12.0408 8.41435 2.76
      vertex 11.8136 9.73357 2.76
      vertex 12.4271 9.60317 2.76
    endloop
  endfacet
  facet normal 0 0 -1
    outer loop
      vertex 11.6829 8.49041 2.76
      vertex 11.8136 9.73357 2.76
      vertex 12.0408 8.41435 2.76
    endloop
  endfacet
  facet normal 0 0 -1
    outer loop
      vertex 11.3171 8.49041 2.76
      vertex 11.8136 9.73357 2.76
      vertex 11.6829 8.49041 2.76
    endloop
  endfacet
  facet normal 0 0 -1
    outer loop
      vertex 11.3171 8.49041 2.76
      vertex 11.1864 9.73357 2.76
      vertex 11.8136 9.73357 2.76
    endloop
  endfacet
  facet normal 0 0 -1
    outer loop
      vertex 10.9592 8.41435 2.76
      vertex 11.1864 9.73357 2.76
      vertex 11.3171 8.49041 2.76
    endloop
  endfacet
  facet normal 0 0 -1
    outer loop
      vertex 10.5729 9.60317 2.76
      vertex 10.9592 8.41435 2.76
      vertex 10.625 8.26554 2.76
    endloop
  endfacet
  facet normal 0 0 -1
    outer loop
      vertex 10.9592 8.41435 2.76
      vertex 10.5729 9.60317 2.76
      vertex 11.1864 9.73357 2.76
    endloop
  endfacet
  facet normal 0 0 -1
    outer loop
      vertex 10 9.34808 2.76
      vertex 10.625 8.26554 2.76
      vertex 10.329 8.0505 2.76
    endloop
  endfacet
  facet normal 0 0 -1
    outer loop
      vertex 9.49261 8.97943 2.76
      vertex 10.329 8.0505 2.76
      vertex 10.0842 7.77862 2.76
    endloop
  endfacet
  facet normal 0 0 -1
    outer loop
      vertex 10.625 8.26554 2.76
      vertex 10 9.34808 2.76
      vertex 10.5729 9.60317 2.76
    endloop
  endfacet
  facet normal 0 0 -1
    outer loop
      vertex 9.07295 8.51336 2.76
      vertex 10.0842 7.77862 2.76
      vertex 9.90129 7.46179 2.76
    endloop
  endfacet
  facet normal 0 0 -1
    outer loop
      vertex 8.75936 7.97021 2.76
      vertex 9.90129 7.46179 2.76
      vertex 9.78824 7.11384 2.76
    endloop
  endfacet
  facet normal 0 0 -1
    outer loop
      vertex 8.56556 7.37373 2.76
      vertex 9.78824 7.11384 2.76
      vertex 9.75 6.75 2.76
    endloop
  endfacet
  facet normal -0 0 -1
    outer loop
      vertex 9.90129 6.03821 2.76
      vertex 8.75936 5.52979 2.76
      vertex 9.78824 6.38615 2.76
    endloop
  endfacet
  facet normal 0 0 -1
    outer loop
      vertex 10.329 8.0505 2.76
      vertex 9.49261 8.97943 2.76
      vertex 10 9.34808 2.76
    endloop
  endfacet
  facet normal 0 0 -1
    outer loop
      vertex 8.56556 6.12626 2.76
      vertex 9.78824 6.38615 2.76
      vertex 8.75936 5.52979 2.76
    endloop
  endfacet
  facet normal 0 0 -1
    outer loop
      vertex 10.0842 7.77862 2.76
      vertex 9.07295 8.51336 2.76
      vertex 9.49261 8.97943 2.76
    endloop
  endfacet
  facet normal -0 0 -1
    outer loop
      vertex 9.78824 6.38615 2.76
      vertex 8.56556 6.12626 2.76
      vertex 9.75 6.75 2.76
    endloop
  endfacet
  facet normal 0 0 -1
    outer loop
      vertex 9.90129 7.46179 2.76
      vertex 8.75936 7.97021 2.76
      vertex 9.07295 8.51336 2.76
    endloop
  endfacet
  facet normal 0 0 -1
    outer loop
      vertex 8.5 6.75 2.76
      vertex 9.75 6.75 2.76
      vertex 8.56556 6.12626 2.76
    endloop
  endfacet
  facet normal 0 0 -1
    outer loop
      vertex 9.78824 7.11384 2.76
      vertex 8.56556 7.37373 2.76
      vertex 8.75936 7.97021 2.76
    endloop
  endfacet
  facet normal 0 0 -1
    outer loop
      vertex 9.75 6.75 2.76
      vertex 8.5 6.75 2.76
      vertex 8.56556 7.37373 2.76
    endloop
  endfacet
  facet normal 0.994522 -0.104528 0
    outer loop
      vertex 8.5 6.75 2.76
      vertex 8.56556 7.37373 0
      vertex 8.56556 7.37373 2.76
    endloop
  endfacet
  facet normal 0.994522 -0.104528 0
    outer loop
      vertex 8.56556 7.37373 0
      vertex 8.5 6.75 2.76
      vertex 8.5 6.75 0
    endloop
  endfacet
  facet normal -0.866026 0.5 0
    outer loop
      vertex 13.9271 4.98664 0
      vertex 14.2406 5.52979 2.76
      vertex 14.2406 5.52979 0
    endloop
  endfacet
  facet normal -0.866026 0.5 0
    outer loop
      vertex 14.2406 5.52979 2.76
      vertex 13.9271 4.98664 0
      vertex 13.9271 4.98664 2.76
    endloop
  endfacet
  facet normal 0.951056 0.309017 0
    outer loop
      vertex 8.75936 5.52979 2.76
      vertex 8.56556 6.12626 0
      vertex 8.56556 6.12626 2.76
    endloop
  endfacet
  facet normal 0.951056 0.309017 0
    outer loop
      vertex 8.56556 6.12626 0
      vertex 8.75936 5.52979 2.76
      vertex 8.75936 5.52979 0
    endloop
  endfacet
  facet normal 0.587785 0.809017 -0
    outer loop
      vertex 10 4.15192 0
      vertex 9.49261 4.52057 2.76
      vertex 10 4.15192 2.76
    endloop
  endfacet
  facet normal 0.587785 0.809017 0
    outer loop
      vertex 9.49261 4.52057 2.76
      vertex 10 4.15192 0
      vertex 9.49261 4.52057 0
    endloop
  endfacet
  facet normal 0.207911 0.978148 -0
    outer loop
      vertex 11.1864 3.76643 0
      vertex 10.5729 3.89683 2.76
      vertex 11.1864 3.76643 2.76
    endloop
  endfacet
  facet normal 0.207911 0.978148 0
    outer loop
      vertex 10.5729 3.89683 2.76
      vertex 11.1864 3.76643 0
      vertex 10.5729 3.89683 0
    endloop
  endfacet
  facet normal -0.207911 0.978148 0
    outer loop
      vertex 12.4271 3.89683 0
      vertex 11.8136 3.76643 2.76
      vertex 12.4271 3.89683 2.76
    endloop
  endfacet
  facet normal -0.207911 0.978148 0
    outer loop
      vertex 11.8136 3.76643 2.76
      vertex 12.4271 3.89683 0
      vertex 11.8136 3.76643 0
    endloop
  endfacet
  facet normal 0.866026 0.5 0
    outer loop
      vertex 9.07295 4.98664 2.76
      vertex 8.75936 5.52979 0
      vertex 8.75936 5.52979 2.76
    endloop
  endfacet
  facet normal 0.866026 0.5 0
    outer loop
      vertex 8.75936 5.52979 0
      vertex 9.07295 4.98664 2.76
      vertex 9.07295 4.98664 0
    endloop
  endfacet
  facet normal -0.743144 0.669131 0
    outer loop
      vertex 13.5074 4.52057 0
      vertex 13.9271 4.98664 2.76
      vertex 13.9271 4.98664 0
    endloop
  endfacet
  facet normal -0.743144 0.669131 0
    outer loop
      vertex 13.9271 4.98664 2.76
      vertex 13.5074 4.52057 0
      vertex 13.5074 4.52057 2.76
    endloop
  endfacet
  facet normal 0 1 -0
    outer loop
      vertex 11.8136 3.76643 0
      vertex 11.1864 3.76643 2.76
      vertex 11.8136 3.76643 2.76
    endloop
  endfacet
  facet normal 0 1 0
    outer loop
      vertex 11.1864 3.76643 2.76
      vertex 11.8136 3.76643 0
      vertex 11.1864 3.76643 0
    endloop
  endfacet
  facet normal -0.866026 -0.5 0
    outer loop
      vertex 14.2406 25.4702 0
      vertex 13.9271 26.0134 2.76
      vertex 13.9271 26.0134 0
    endloop
  endfacet
  facet normal -0.866026 -0.5 0
    outer loop
      vertex 13.9271 26.0134 2.76
      vertex 14.2406 25.4702 0
      vertex 14.2406 25.4702 2.76
    endloop
  endfacet
  facet normal 0.994522 -0.104528 0
    outer loop
      vertex 8.5 24.25 2.76
      vertex 8.56556 24.8737 0
      vertex 8.56556 24.8737 2.76
    endloop
  endfacet
  facet normal 0.994522 -0.104528 0
    outer loop
      vertex 8.56556 24.8737 0
      vertex 8.5 24.25 2.76
      vertex 8.5 24.25 0
    endloop
  endfacet
  facet normal -0.743145 -0.66913 0
    outer loop
      vertex 13.9271 26.0134 0
      vertex 13.5074 26.4794 2.76
      vertex 13.5074 26.4794 0
    endloop
  endfacet
  facet normal -0.743145 -0.66913 0
    outer loop
      vertex 13.5074 26.4794 2.76
      vertex 13.9271 26.0134 0
      vertex 13.9271 26.0134 2.76
    endloop
  endfacet
  facet normal 0 -1 0
    outer loop
      vertex 11.1864 27.2336 0
      vertex 11.8136 27.2336 2.76
      vertex 11.1864 27.2336 2.76
    endloop
  endfacet
  facet normal 0 -1 -0
    outer loop
      vertex 11.8136 27.2336 2.76
      vertex 11.1864 27.2336 0
      vertex 11.8136 27.2336 0
    endloop
  endfacet
  facet normal -0.207914 -0.978147 0
    outer loop
      vertex 11.8136 27.2336 0
      vertex 12.4271 27.1032 2.76
      vertex 11.8136 27.2336 2.76
    endloop
  endfacet
  facet normal -0.207914 -0.978147 -0
    outer loop
      vertex 12.4271 27.1032 2.76
      vertex 11.8136 27.2336 0
      vertex 12.4271 27.1032 0
    endloop
  endfacet
  facet normal 0.587784 -0.809018 0
    outer loop
      vertex 9.49261 26.4794 0
      vertex 10 26.8481 2.76
      vertex 9.49261 26.4794 2.76
    endloop
  endfacet
  facet normal 0.587784 -0.809018 0
    outer loop
      vertex 10 26.8481 2.76
      vertex 9.49261 26.4794 0
      vertex 10 26.8481 0
    endloop
  endfacet
  facet normal 0.951057 -0.309017 0
    outer loop
      vertex 8.56556 24.8737 2.76
      vertex 8.75936 25.4702 0
      vertex 8.75936 25.4702 2.76
    endloop
  endfacet
  facet normal 0.951057 -0.309017 0
    outer loop
      vertex 8.75936 25.4702 0
      vertex 8.56556 24.8737 2.76
      vertex 8.56556 24.8737 0
    endloop
  endfacet
  facet normal 0.743145 -0.66913 0
    outer loop
      vertex 9.07295 26.0134 2.76
      vertex 9.49261 26.4794 0
      vertex 9.49261 26.4794 2.76
    endloop
  endfacet
  facet normal 0.743145 -0.66913 0
    outer loop
      vertex 9.49261 26.4794 0
      vertex 9.07295 26.0134 2.76
      vertex 9.07295 26.0134 0
    endloop
  endfacet
  facet normal -0.994522 0.104529 0
    outer loop
      vertex 14.4344 23.6263 0
      vertex 14.5 24.25 2.76
      vertex 14.5 24.25 0
    endloop
  endfacet
  facet normal -0.994522 0.104529 0
    outer loop
      vertex 14.5 24.25 2.76
      vertex 14.4344 23.6263 0
      vertex 14.4344 23.6263 2.76
    endloop
  endfacet
  facet normal -0.587785 -0.809017 0
    outer loop
      vertex 13 26.8481 0
      vertex 13.5074 26.4794 2.76
      vertex 13 26.8481 2.76
    endloop
  endfacet
  facet normal -0.587785 -0.809017 -0
    outer loop
      vertex 13.5074 26.4794 2.76
      vertex 13 26.8481 0
      vertex 13.5074 26.4794 0
    endloop
  endfacet
  facet normal 0.207914 -0.978147 0
    outer loop
      vertex 10.5729 27.1032 0
      vertex 11.1864 27.2336 2.76
      vertex 10.5729 27.1032 2.76
    endloop
  endfacet
  facet normal 0.207914 -0.978147 0
    outer loop
      vertex 11.1864 27.2336 2.76
      vertex 10.5729 27.1032 0
      vertex 11.1864 27.2336 0
    endloop
  endfacet
  facet normal -0.406735 -0.913546 0
    outer loop
      vertex 12.4271 27.1032 0
      vertex 13 26.8481 2.76
      vertex 12.4271 27.1032 2.76
    endloop
  endfacet
  facet normal -0.406735 -0.913546 -0
    outer loop
      vertex 13 26.8481 2.76
      vertex 12.4271 27.1032 0
      vertex 13 26.8481 0
    endloop
  endfacet
  facet normal 0.994522 0.104527 0
    outer loop
      vertex 8.56556 23.6263 2.76
      vertex 8.5 24.25 0
      vertex 8.5 24.25 2.76
    endloop
  endfacet
  facet normal 0.994522 0.104527 0
    outer loop
      vertex 8.5 24.25 0
      vertex 8.56556 23.6263 2.76
      vertex 8.56556 23.6263 0
    endloop
  endfacet
  facet normal 0.866026 -0.5 0
    outer loop
      vertex 8.75936 25.4702 2.76
      vertex 9.07295 26.0134 0
      vertex 9.07295 26.0134 2.76
    endloop
  endfacet
  facet normal 0.866026 -0.5 0
    outer loop
      vertex 9.07295 26.0134 0
      vertex 8.75936 25.4702 2.76
      vertex 8.75936 25.4702 0
    endloop
  endfacet
  facet normal 0.406736 -0.913546 0
    outer loop
      vertex 10 26.8481 0
      vertex 10.5729 27.1032 2.76
      vertex 10 26.8481 2.76
    endloop
  endfacet
  facet normal 0.406736 -0.913546 0
    outer loop
      vertex 10.5729 27.1032 2.76
      vertex 10 26.8481 0
      vertex 10.5729 27.1032 0
    endloop
  endfacet
  facet normal -0.994522 -0.104529 0
    outer loop
      vertex 14.5 24.25 0
      vertex 14.4344 24.8737 2.76
      vertex 14.4344 24.8737 0
    endloop
  endfacet
  facet normal -0.994522 -0.104529 0
    outer loop
      vertex 14.4344 24.8737 2.76
      vertex 14.5 24.25 0
      vertex 14.5 24.25 2.76
    endloop
  endfacet
  facet normal 0.406739 0.913545 -0
    outer loop
      vertex 10.5729 21.3968 0
      vertex 10 21.6519 2.76
      vertex 10.5729 21.3968 2.76
    endloop
  endfacet
  facet normal 0.406739 0.913545 0
    outer loop
      vertex 10 21.6519 2.76
      vertex 10.5729 21.3968 0
      vertex 10 21.6519 0
    endloop
  endfacet
  facet normal 0.743145 0.66913 0
    outer loop
      vertex 9.49261 22.0206 2.76
      vertex 9.07295 22.4866 0
      vertex 9.07295 22.4866 2.76
    endloop
  endfacet
  facet normal 0.743145 0.66913 0
    outer loop
      vertex 9.07295 22.4866 0
      vertex 9.49261 22.0206 2.76
      vertex 9.49261 22.0206 0
    endloop
  endfacet
  facet normal -0.406738 0.913545 0
    outer loop
      vertex 13 21.6519 0
      vertex 12.4271 21.3968 2.76
      vertex 13 21.6519 2.76
    endloop
  endfacet
  facet normal -0.406738 0.913545 0
    outer loop
      vertex 12.4271 21.3968 2.76
      vertex 13 21.6519 0
      vertex 12.4271 21.3968 0
    endloop
  endfacet
  facet normal -0.587785 0.809017 0
    outer loop
      vertex 13.5074 22.0206 0
      vertex 13 21.6519 2.76
      vertex 13.5074 22.0206 2.76
    endloop
  endfacet
  facet normal -0.587785 0.809017 0
    outer loop
      vertex 13 21.6519 2.76
      vertex 13.5074 22.0206 0
      vertex 13 21.6519 0
    endloop
  endfacet
  facet normal -0.951057 -0.309017 0
    outer loop
      vertex 14.4344 24.8737 0
      vertex 14.2406 25.4702 2.76
      vertex 14.2406 25.4702 0
    endloop
  endfacet
  facet normal -0.951057 -0.309017 0
    outer loop
      vertex 14.2406 25.4702 2.76
      vertex 14.4344 24.8737 0
      vertex 14.4344 24.8737 2.76
    endloop
  endfacet
  facet normal 0 0 -1
    outer loop
      vertex 13.25 24.25 2.76
      vertex 14.5 24.25 2.76
      vertex 14.4344 23.6263 2.76
    endloop
  endfacet
  facet normal 0 0 -1
    outer loop
      vertex 13.2118 23.8862 2.76
      vertex 14.4344 23.6263 2.76
      vertex 14.2406 23.0298 2.76
    endloop
  endfacet
  facet normal 0 0 -1
    outer loop
      vertex 14.5 24.25 2.76
      vertex 13.25 24.25 2.76
      vertex 14.4344 24.8737 2.76
    endloop
  endfacet
  facet normal 0 0 -1
    outer loop
      vertex 13.0987 23.5382 2.76
      vertex 14.2406 23.0298 2.76
      vertex 13.9271 22.4866 2.76
    endloop
  endfacet
  facet normal 0 0 -1
    outer loop
      vertex 13.2118 24.6138 2.76
      vertex 14.4344 24.8737 2.76
      vertex 13.25 24.25 2.76
    endloop
  endfacet
  facet normal 0 0 -1
    outer loop
      vertex 12.9158 23.2214 2.76
      vertex 13.9271 22.4866 2.76
      vertex 13.5074 22.0206 2.76
    endloop
  endfacet
  facet normal -0 0 -1
    outer loop
      vertex 14.4344 24.8737 2.76
      vertex 13.2118 24.6138 2.76
      vertex 14.2406 25.4702 2.76
    endloop
  endfacet
  facet normal 0 0 -1
    outer loop
      vertex 13.0987 24.9618 2.76
      vertex 14.2406 25.4702 2.76
      vertex 13.2118 24.6138 2.76
    endloop
  endfacet
  facet normal 0 0 -1
    outer loop
      vertex 14.4344 23.6263 2.76
      vertex 13.2118 23.8862 2.76
      vertex 13.25 24.25 2.76
    endloop
  endfacet
  facet normal 0 0 -1
    outer loop
      vertex 14.2406 23.0298 2.76
      vertex 13.0987 23.5382 2.76
      vertex 13.2118 23.8862 2.76
    endloop
  endfacet
  facet normal 0 0 -1
    outer loop
      vertex 12.671 22.9495 2.76
      vertex 13.5074 22.0206 2.76
      vertex 13 21.6519 2.76
    endloop
  endfacet
  facet normal 0 0 -1
    outer loop
      vertex 13.9271 22.4866 2.76
      vertex 12.9158 23.2214 2.76
      vertex 13.0987 23.5382 2.76
    endloop
  endfacet
  facet normal 0 0 -1
    outer loop
      vertex 13.5074 22.0206 2.76
      vertex 12.671 22.9495 2.76
      vertex 12.9158 23.2214 2.76
    endloop
  endfacet
  facet normal 0 0 -1
    outer loop
      vertex 12.375 22.7345 2.76
      vertex 13 21.6519 2.76
      vertex 12.4271 21.3968 2.76
    endloop
  endfacet
  facet normal 0 0 -1
    outer loop
      vertex 13 21.6519 2.76
      vertex 12.375 22.7345 2.76
      vertex 12.671 22.9495 2.76
    endloop
  endfacet
  facet normal 0 0 -1
    outer loop
      vertex 12.4271 21.3968 2.76
      vertex 12.0408 22.5857 2.76
      vertex 12.375 22.7345 2.76
    endloop
  endfacet
  facet normal 0 0 -1
    outer loop
      vertex 11.8136 21.2664 2.76
      vertex 12.0408 22.5857 2.76
      vertex 12.4271 21.3968 2.76
    endloop
  endfacet
  facet normal 0 0 -1
    outer loop
      vertex 11.8136 21.2664 2.76
      vertex 11.6829 22.5096 2.76
      vertex 12.0408 22.5857 2.76
    endloop
  endfacet
  facet normal 0 0 -1
    outer loop
      vertex 11.8136 21.2664 2.76
      vertex 11.3171 22.5096 2.76
      vertex 11.6829 22.5096 2.76
    endloop
  endfacet
  facet normal 0 0 -1
    outer loop
      vertex 11.1864 21.2664 2.76
      vertex 11.3171 22.5096 2.76
      vertex 11.8136 21.2664 2.76
    endloop
  endfacet
  facet normal 0 0 -1
    outer loop
      vertex 11.1864 21.2664 2.76
      vertex 10.9592 22.5857 2.76
      vertex 11.3171 22.5096 2.76
    endloop
  endfacet
  facet normal 0 0 -1
    outer loop
      vertex 10.5729 21.3968 2.76
      vertex 10.9592 22.5857 2.76
      vertex 11.1864 21.2664 2.76
    endloop
  endfacet
  facet normal -0 0 -1
    outer loop
      vertex 10.9592 22.5857 2.76
      vertex 10.5729 21.3968 2.76
      vertex 10.625 22.7345 2.76
    endloop
  endfacet
  facet normal 0 0 -1
    outer loop
      vertex 10 21.6519 2.76
      vertex 10.625 22.7345 2.76
      vertex 10.5729 21.3968 2.76
    endloop
  endfacet
  facet normal -0 0 -1
    outer loop
      vertex 10.625 22.7345 2.76
      vertex 10 21.6519 2.76
      vertex 10.329 22.9495 2.76
    endloop
  endfacet
  facet normal 0 0 -1
    outer loop
      vertex 9.49261 22.0206 2.76
      vertex 10.329 22.9495 2.76
      vertex 10 21.6519 2.76
    endloop
  endfacet
  facet normal -0 0 -1
    outer loop
      vertex 10.329 22.9495 2.76
      vertex 9.49261 22.0206 2.76
      vertex 10.0842 23.2214 2.76
    endloop
  endfacet
  facet normal 0 0 -1
    outer loop
      vertex 9.07295 22.4866 2.76
      vertex 10.0842 23.2214 2.76
      vertex 9.49261 22.0206 2.76
    endloop
  endfacet
  facet normal -0 0 -1
    outer loop
      vertex 10.0842 23.2214 2.76
      vertex 9.07295 22.4866 2.76
      vertex 9.90129 23.5382 2.76
    endloop
  endfacet
  facet normal 0 0 -1
    outer loop
      vertex 8.75936 23.0298 2.76
      vertex 9.90129 23.5382 2.76
      vertex 9.07295 22.4866 2.76
    endloop
  endfacet
  facet normal -0 0 -1
    outer loop
      vertex 14.2406 25.4702 2.76
      vertex 13.0987 24.9618 2.76
      vertex 13.9271 26.0134 2.76
    endloop
  endfacet
  facet normal 0 0 -1
    outer loop
      vertex 12.9158 25.2786 2.76
      vertex 13.9271 26.0134 2.76
      vertex 13.0987 24.9618 2.76
    endloop
  endfacet
  facet normal -0 0 -1
    outer loop
      vertex 13.9271 26.0134 2.76
      vertex 12.9158 25.2786 2.76
      vertex 13.5074 26.4794 2.76
    endloop
  endfacet
  facet normal 0 0 -1
    outer loop
      vertex 12.671 25.5505 2.76
      vertex 13.5074 26.4794 2.76
      vertex 12.9158 25.2786 2.76
    endloop
  endfacet
  facet normal -0 0 -1
    outer loop
      vertex 13.5074 26.4794 2.76
      vertex 12.671 25.5505 2.76
      vertex 13 26.8481 2.76
    endloop
  endfacet
  facet normal 0 0 -1
    outer loop
      vertex 12.375 25.7655 2.76
      vertex 13 26.8481 2.76
      vertex 12.671 25.5505 2.76
    endloop
  endfacet
  facet normal -0 0 -1
    outer loop
      vertex 13 26.8481 2.76
      vertex 12.375 25.7655 2.76
      vertex 12.4271 27.1032 2.76
    endloop
  endfacet
  facet normal 0 0 -1
    outer loop
      vertex 12.0408 25.9143 2.76
      vertex 12.4271 27.1032 2.76
      vertex 12.375 25.7655 2.76
    endloop
  endfacet
  facet normal 0 0 -1
    outer loop
      vertex 12.0408 25.9143 2.76
      vertex 11.8136 27.2336 2.76
      vertex 12.4271 27.1032 2.76
    endloop
  endfacet
  facet normal 0 0 -1
    outer loop
      vertex 11.6829 25.9904 2.76
      vertex 11.8136 27.2336 2.76
      vertex 12.0408 25.9143 2.76
    endloop
  endfacet
  facet normal 0 0 -1
    outer loop
      vertex 11.3171 25.9904 2.76
      vertex 11.8136 27.2336 2.76
      vertex 11.6829 25.9904 2.76
    endloop
  endfacet
  facet normal 0 0 -1
    outer loop
      vertex 11.3171 25.9904 2.76
      vertex 11.1864 27.2336 2.76
      vertex 11.8136 27.2336 2.76
    endloop
  endfacet
  facet normal 0 0 -1
    outer loop
      vertex 10.9592 25.9143 2.76
      vertex 11.1864 27.2336 2.76
      vertex 11.3171 25.9904 2.76
    endloop
  endfacet
  facet normal 0 0 -1
    outer loop
      vertex 10.5729 27.1032 2.76
      vertex 10.9592 25.9143 2.76
      vertex 10.625 25.7655 2.76
    endloop
  endfacet
  facet normal 0 0 -1
    outer loop
      vertex 10.9592 25.9143 2.76
      vertex 10.5729 27.1032 2.76
      vertex 11.1864 27.2336 2.76
    endloop
  endfacet
  facet normal 0 0 -1
    outer loop
      vertex 10 26.8481 2.76
      vertex 10.625 25.7655 2.76
      vertex 10.329 25.5505 2.76
    endloop
  endfacet
  facet normal 0 0 -1
    outer loop
      vertex 9.49261 26.4794 2.76
      vertex 10.329 25.5505 2.76
      vertex 10.0842 25.2786 2.76
    endloop
  endfacet
  facet normal 0 0 -1
    outer loop
      vertex 10.625 25.7655 2.76
      vertex 10 26.8481 2.76
      vertex 10.5729 27.1032 2.76
    endloop
  endfacet
  facet normal 0 0 -1
    outer loop
      vertex 9.07295 26.0134 2.76
      vertex 10.0842 25.2786 2.76
      vertex 9.90129 24.9618 2.76
    endloop
  endfacet
  facet normal 0 0 -1
    outer loop
      vertex 8.75936 25.4702 2.76
      vertex 9.90129 24.9618 2.76
      vertex 9.78824 24.6138 2.76
    endloop
  endfacet
  facet normal 0 0 -1
    outer loop
      vertex 8.56556 24.8737 2.76
      vertex 9.78824 24.6138 2.76
      vertex 9.75 24.25 2.76
    endloop
  endfacet
  facet normal -0 0 -1
    outer loop
      vertex 9.90129 23.5382 2.76
      vertex 8.75936 23.0298 2.76
      vertex 9.78824 23.8862 2.76
    endloop
  endfacet
  facet normal 0 0 -1
    outer loop
      vertex 10.329 25.5505 2.76
      vertex 9.49261 26.4794 2.76
      vertex 10 26.8481 2.76
    endloop
  endfacet
  facet normal 0 0 -1
    outer loop
      vertex 8.56556 23.6263 2.76
      vertex 9.78824 23.8862 2.76
      vertex 8.75936 23.0298 2.76
    endloop
  endfacet
  facet normal 0 0 -1
    outer loop
      vertex 10.0842 25.2786 2.76
      vertex 9.07295 26.0134 2.76
      vertex 9.49261 26.4794 2.76
    endloop
  endfacet
  facet normal -0 0 -1
    outer loop
      vertex 9.78824 23.8862 2.76
      vertex 8.56556 23.6263 2.76
      vertex 9.75 24.25 2.76
    endloop
  endfacet
  facet normal 0 0 -1
    outer loop
      vertex 9.90129 24.9618 2.76
      vertex 8.75936 25.4702 2.76
      vertex 9.07295 26.0134 2.76
    endloop
  endfacet
  facet normal 0 0 -1
    outer loop
      vertex 8.5 24.25 2.76
      vertex 9.75 24.25 2.76
      vertex 8.56556 23.6263 2.76
    endloop
  endfacet
  facet normal 0 0 -1
    outer loop
      vertex 9.78824 24.6138 2.76
      vertex 8.56556 24.8737 2.76
      vertex 8.75936 25.4702 2.76
    endloop
  endfacet
  facet normal 0 0 -1
    outer loop
      vertex 9.75 24.25 2.76
      vertex 8.5 24.25 2.76
      vertex 8.56556 24.8737 2.76
    endloop
  endfacet
  facet normal -0.866025 0.500001 0
    outer loop
      vertex 13.9271 22.4866 0
      vertex 14.2406 23.0298 2.76
      vertex 14.2406 23.0298 0
    endloop
  endfacet
  facet normal -0.866025 0.500001 0
    outer loop
      vertex 14.2406 23.0298 2.76
      vertex 13.9271 22.4866 0
      vertex 13.9271 22.4866 2.76
    endloop
  endfacet
  facet normal 0.951057 0.309017 0
    outer loop
      vertex 8.75936 23.0298 2.76
      vertex 8.56556 23.6263 0
      vertex 8.56556 23.6263 2.76
    endloop
  endfacet
  facet normal 0.951057 0.309017 0
    outer loop
      vertex 8.56556 23.6263 0
      vertex 8.75936 23.0298 2.76
      vertex 8.75936 23.0298 0
    endloop
  endfacet
  facet normal 0.587784 0.809018 -0
    outer loop
      vertex 10 21.6519 0
      vertex 9.49261 22.0206 2.76
      vertex 10 21.6519 2.76
    endloop
  endfacet
  facet normal 0.587784 0.809018 0
    outer loop
      vertex 9.49261 22.0206 2.76
      vertex 10 21.6519 0
      vertex 9.49261 22.0206 0
    endloop
  endfacet
  facet normal -0.951057 0.309017 0
    outer loop
      vertex 14.2406 23.0298 0
      vertex 14.4344 23.6263 2.76
      vertex 14.4344 23.6263 0
    endloop
  endfacet
  facet normal -0.951057 0.309017 0
    outer loop
      vertex 14.4344 23.6263 2.76
      vertex 14.2406 23.0298 0
      vertex 14.2406 23.0298 2.76
    endloop
  endfacet
  facet normal 0.207911 0.978148 -0
    outer loop
      vertex 11.1864 21.2664 0
      vertex 10.5729 21.3968 2.76
      vertex 11.1864 21.2664 2.76
    endloop
  endfacet
  facet normal 0.207911 0.978148 0
    outer loop
      vertex 10.5729 21.3968 2.76
      vertex 11.1864 21.2664 0
      vertex 10.5729 21.3968 0
    endloop
  endfacet
  facet normal -0.207911 0.978148 0
    outer loop
      vertex 12.4271 21.3968 0
      vertex 11.8136 21.2664 2.76
      vertex 12.4271 21.3968 2.76
    endloop
  endfacet
  facet normal -0.207911 0.978148 0
    outer loop
      vertex 11.8136 21.2664 2.76
      vertex 12.4271 21.3968 0
      vertex 11.8136 21.2664 0
    endloop
  endfacet
  facet normal 0.866025 0.500001 0
    outer loop
      vertex 9.07295 22.4866 2.76
      vertex 8.75936 23.0298 0
      vertex 8.75936 23.0298 2.76
    endloop
  endfacet
  facet normal 0.866025 0.500001 0
    outer loop
      vertex 8.75936 23.0298 0
      vertex 9.07295 22.4866 2.76
      vertex 9.07295 22.4866 0
    endloop
  endfacet
  facet normal -0.743145 0.66913 0
    outer loop
      vertex 13.5074 22.0206 0
      vertex 13.9271 22.4866 2.76
      vertex 13.9271 22.4866 0
    endloop
  endfacet
  facet normal -0.743145 0.66913 0
    outer loop
      vertex 13.9271 22.4866 2.76
      vertex 13.5074 22.0206 0
      vertex 13.5074 22.0206 2.76
    endloop
  endfacet
  facet normal 0 1 -0
    outer loop
      vertex 11.8136 21.2664 0
      vertex 11.1864 21.2664 2.76
      vertex 11.8136 21.2664 2.76
    endloop
  endfacet
  facet normal 0 1 0
    outer loop
      vertex 11.1864 21.2664 2.76
      vertex 11.8136 21.2664 0
      vertex 11.1864 21.2664 0
    endloop
  endfacet
endsolid OpenSCAD_Model
